%TF.GenerationSoftware,KiCad,Pcbnew,8.0.3*%
%TF.CreationDate,2024-07-16T19:38:43-07:00*%
%TF.ProjectId,ImmunoprecipitationDevice,496d6d75-6e6f-4707-9265-636970697461,rev?*%
%TF.SameCoordinates,Original*%
%TF.FileFunction,Legend,Top*%
%TF.FilePolarity,Positive*%
%FSLAX46Y46*%
G04 Gerber Fmt 4.6, Leading zero omitted, Abs format (unit mm)*
G04 Created by KiCad (PCBNEW 8.0.3) date 2024-07-16 19:38:43*
%MOMM*%
%LPD*%
G01*
G04 APERTURE LIST*
%ADD10C,1.000000*%
%ADD11C,0.100000*%
%ADD12C,0.250000*%
%ADD13C,0.000000*%
%ADD14R,0.150000X0.200000*%
%ADD15R,0.200000X0.150000*%
%ADD16R,0.550000X2.500000*%
%ADD17R,2.500000X0.550000*%
%TA.AperFunction,Profile*%
%ADD18C,0.200000*%
%TD*%
%TA.AperFunction,Profile*%
%ADD19C,0.150000*%
%TD*%
G04 APERTURE END LIST*
D10*
X114000000Y-64275000D02*
G75*
G02*
X14000000Y-64275000I-50000000J0D01*
G01*
X14000000Y-64275000D02*
G75*
G02*
X114000000Y-64275000I50000000J0D01*
G01*
D11*
X72799999Y-70811271D02*
X72799999Y-70454128D01*
X73157142Y-70596985D02*
X72799999Y-70454128D01*
X72799999Y-70454128D02*
X72442856Y-70596985D01*
X73014285Y-70168414D02*
X72799999Y-70454128D01*
X72799999Y-70454128D02*
X72585713Y-70168414D01*
X50999999Y-64811271D02*
X50999999Y-64454128D01*
X51357142Y-64596985D02*
X50999999Y-64454128D01*
X50999999Y-64454128D02*
X50642856Y-64596985D01*
X51214285Y-64168414D02*
X50999999Y-64454128D01*
X50999999Y-64454128D02*
X50785713Y-64168414D01*
D12*
X53102568Y-102149619D02*
X53102568Y-101149619D01*
X53578758Y-102149619D02*
X53578758Y-101149619D01*
X53578758Y-101149619D02*
X53959710Y-101149619D01*
X53959710Y-101149619D02*
X54054948Y-101197238D01*
X54054948Y-101197238D02*
X54102567Y-101244857D01*
X54102567Y-101244857D02*
X54150186Y-101340095D01*
X54150186Y-101340095D02*
X54150186Y-101482952D01*
X54150186Y-101482952D02*
X54102567Y-101578190D01*
X54102567Y-101578190D02*
X54054948Y-101625809D01*
X54054948Y-101625809D02*
X53959710Y-101673428D01*
X53959710Y-101673428D02*
X53578758Y-101673428D01*
X54578758Y-102054380D02*
X54626377Y-102102000D01*
X54626377Y-102102000D02*
X54578758Y-102149619D01*
X54578758Y-102149619D02*
X54531139Y-102102000D01*
X54531139Y-102102000D02*
X54578758Y-102054380D01*
X54578758Y-102054380D02*
X54578758Y-102149619D01*
X55388281Y-101625809D02*
X55054948Y-101625809D01*
X55054948Y-102149619D02*
X55054948Y-101149619D01*
X55054948Y-101149619D02*
X55531138Y-101149619D01*
X56054948Y-102149619D02*
X55959710Y-102102000D01*
X55959710Y-102102000D02*
X55912091Y-102006761D01*
X55912091Y-102006761D02*
X55912091Y-101149619D01*
X56578758Y-102149619D02*
X56483520Y-102102000D01*
X56483520Y-102102000D02*
X56435901Y-102054380D01*
X56435901Y-102054380D02*
X56388282Y-101959142D01*
X56388282Y-101959142D02*
X56388282Y-101673428D01*
X56388282Y-101673428D02*
X56435901Y-101578190D01*
X56435901Y-101578190D02*
X56483520Y-101530571D01*
X56483520Y-101530571D02*
X56578758Y-101482952D01*
X56578758Y-101482952D02*
X56721615Y-101482952D01*
X56721615Y-101482952D02*
X56816853Y-101530571D01*
X56816853Y-101530571D02*
X56864472Y-101578190D01*
X56864472Y-101578190D02*
X56912091Y-101673428D01*
X56912091Y-101673428D02*
X56912091Y-101959142D01*
X56912091Y-101959142D02*
X56864472Y-102054380D01*
X56864472Y-102054380D02*
X56816853Y-102102000D01*
X56816853Y-102102000D02*
X56721615Y-102149619D01*
X56721615Y-102149619D02*
X56578758Y-102149619D01*
X57245425Y-101482952D02*
X57435901Y-102149619D01*
X57435901Y-102149619D02*
X57626377Y-101673428D01*
X57626377Y-101673428D02*
X57816853Y-102149619D01*
X57816853Y-102149619D02*
X58007329Y-101482952D01*
X58388282Y-101768666D02*
X59150187Y-101768666D01*
X58769234Y-102149619D02*
X58769234Y-101387714D01*
X59626377Y-102054380D02*
X59673996Y-102102000D01*
X59673996Y-102102000D02*
X59626377Y-102149619D01*
X59626377Y-102149619D02*
X59578758Y-102102000D01*
X59578758Y-102102000D02*
X59626377Y-102054380D01*
X59626377Y-102054380D02*
X59626377Y-102149619D01*
X60673995Y-102149619D02*
X60340662Y-101673428D01*
X60102567Y-102149619D02*
X60102567Y-101149619D01*
X60102567Y-101149619D02*
X60483519Y-101149619D01*
X60483519Y-101149619D02*
X60578757Y-101197238D01*
X60578757Y-101197238D02*
X60626376Y-101244857D01*
X60626376Y-101244857D02*
X60673995Y-101340095D01*
X60673995Y-101340095D02*
X60673995Y-101482952D01*
X60673995Y-101482952D02*
X60626376Y-101578190D01*
X60626376Y-101578190D02*
X60578757Y-101625809D01*
X60578757Y-101625809D02*
X60483519Y-101673428D01*
X60483519Y-101673428D02*
X60102567Y-101673428D01*
X61483519Y-102102000D02*
X61388281Y-102149619D01*
X61388281Y-102149619D02*
X61197805Y-102149619D01*
X61197805Y-102149619D02*
X61102567Y-102102000D01*
X61102567Y-102102000D02*
X61054948Y-102006761D01*
X61054948Y-102006761D02*
X61054948Y-101625809D01*
X61054948Y-101625809D02*
X61102567Y-101530571D01*
X61102567Y-101530571D02*
X61197805Y-101482952D01*
X61197805Y-101482952D02*
X61388281Y-101482952D01*
X61388281Y-101482952D02*
X61483519Y-101530571D01*
X61483519Y-101530571D02*
X61531138Y-101625809D01*
X61531138Y-101625809D02*
X61531138Y-101721047D01*
X61531138Y-101721047D02*
X61054948Y-101816285D01*
X61864472Y-101482952D02*
X62102567Y-102149619D01*
X62102567Y-102149619D02*
X62340662Y-101482952D01*
X63816853Y-101625809D02*
X63959710Y-101673428D01*
X63959710Y-101673428D02*
X64007329Y-101721047D01*
X64007329Y-101721047D02*
X64054948Y-101816285D01*
X64054948Y-101816285D02*
X64054948Y-101959142D01*
X64054948Y-101959142D02*
X64007329Y-102054380D01*
X64007329Y-102054380D02*
X63959710Y-102102000D01*
X63959710Y-102102000D02*
X63864472Y-102149619D01*
X63864472Y-102149619D02*
X63483520Y-102149619D01*
X63483520Y-102149619D02*
X63483520Y-101149619D01*
X63483520Y-101149619D02*
X63816853Y-101149619D01*
X63816853Y-101149619D02*
X63912091Y-101197238D01*
X63912091Y-101197238D02*
X63959710Y-101244857D01*
X63959710Y-101244857D02*
X64007329Y-101340095D01*
X64007329Y-101340095D02*
X64007329Y-101435333D01*
X64007329Y-101435333D02*
X63959710Y-101530571D01*
X63959710Y-101530571D02*
X63912091Y-101578190D01*
X63912091Y-101578190D02*
X63816853Y-101625809D01*
X63816853Y-101625809D02*
X63483520Y-101625809D01*
X64483520Y-102054380D02*
X64531139Y-102102000D01*
X64531139Y-102102000D02*
X64483520Y-102149619D01*
X64483520Y-102149619D02*
X64435901Y-102102000D01*
X64435901Y-102102000D02*
X64483520Y-102054380D01*
X64483520Y-102054380D02*
X64483520Y-102149619D01*
X64912091Y-101244857D02*
X64959710Y-101197238D01*
X64959710Y-101197238D02*
X65054948Y-101149619D01*
X65054948Y-101149619D02*
X65293043Y-101149619D01*
X65293043Y-101149619D02*
X65388281Y-101197238D01*
X65388281Y-101197238D02*
X65435900Y-101244857D01*
X65435900Y-101244857D02*
X65483519Y-101340095D01*
X65483519Y-101340095D02*
X65483519Y-101435333D01*
X65483519Y-101435333D02*
X65435900Y-101578190D01*
X65435900Y-101578190D02*
X64864472Y-102149619D01*
X64864472Y-102149619D02*
X65483519Y-102149619D01*
X66102567Y-101149619D02*
X66197805Y-101149619D01*
X66197805Y-101149619D02*
X66293043Y-101197238D01*
X66293043Y-101197238D02*
X66340662Y-101244857D01*
X66340662Y-101244857D02*
X66388281Y-101340095D01*
X66388281Y-101340095D02*
X66435900Y-101530571D01*
X66435900Y-101530571D02*
X66435900Y-101768666D01*
X66435900Y-101768666D02*
X66388281Y-101959142D01*
X66388281Y-101959142D02*
X66340662Y-102054380D01*
X66340662Y-102054380D02*
X66293043Y-102102000D01*
X66293043Y-102102000D02*
X66197805Y-102149619D01*
X66197805Y-102149619D02*
X66102567Y-102149619D01*
X66102567Y-102149619D02*
X66007329Y-102102000D01*
X66007329Y-102102000D02*
X65959710Y-102054380D01*
X65959710Y-102054380D02*
X65912091Y-101959142D01*
X65912091Y-101959142D02*
X65864472Y-101768666D01*
X65864472Y-101768666D02*
X65864472Y-101530571D01*
X65864472Y-101530571D02*
X65912091Y-101340095D01*
X65912091Y-101340095D02*
X65959710Y-101244857D01*
X65959710Y-101244857D02*
X66007329Y-101197238D01*
X66007329Y-101197238D02*
X66102567Y-101149619D01*
X66816853Y-101244857D02*
X66864472Y-101197238D01*
X66864472Y-101197238D02*
X66959710Y-101149619D01*
X66959710Y-101149619D02*
X67197805Y-101149619D01*
X67197805Y-101149619D02*
X67293043Y-101197238D01*
X67293043Y-101197238D02*
X67340662Y-101244857D01*
X67340662Y-101244857D02*
X67388281Y-101340095D01*
X67388281Y-101340095D02*
X67388281Y-101435333D01*
X67388281Y-101435333D02*
X67340662Y-101578190D01*
X67340662Y-101578190D02*
X66769234Y-102149619D01*
X66769234Y-102149619D02*
X67388281Y-102149619D01*
X68245424Y-101482952D02*
X68245424Y-102149619D01*
X68007329Y-101102000D02*
X67769234Y-101816285D01*
X67769234Y-101816285D02*
X68388281Y-101816285D01*
X68959710Y-101149619D02*
X69054948Y-101149619D01*
X69054948Y-101149619D02*
X69150186Y-101197238D01*
X69150186Y-101197238D02*
X69197805Y-101244857D01*
X69197805Y-101244857D02*
X69245424Y-101340095D01*
X69245424Y-101340095D02*
X69293043Y-101530571D01*
X69293043Y-101530571D02*
X69293043Y-101768666D01*
X69293043Y-101768666D02*
X69245424Y-101959142D01*
X69245424Y-101959142D02*
X69197805Y-102054380D01*
X69197805Y-102054380D02*
X69150186Y-102102000D01*
X69150186Y-102102000D02*
X69054948Y-102149619D01*
X69054948Y-102149619D02*
X68959710Y-102149619D01*
X68959710Y-102149619D02*
X68864472Y-102102000D01*
X68864472Y-102102000D02*
X68816853Y-102054380D01*
X68816853Y-102054380D02*
X68769234Y-101959142D01*
X68769234Y-101959142D02*
X68721615Y-101768666D01*
X68721615Y-101768666D02*
X68721615Y-101530571D01*
X68721615Y-101530571D02*
X68769234Y-101340095D01*
X68769234Y-101340095D02*
X68816853Y-101244857D01*
X68816853Y-101244857D02*
X68864472Y-101197238D01*
X68864472Y-101197238D02*
X68959710Y-101149619D01*
X69626377Y-101149619D02*
X70293043Y-101149619D01*
X70293043Y-101149619D02*
X69864472Y-102149619D01*
X71197805Y-102149619D02*
X70626377Y-102149619D01*
X70912091Y-102149619D02*
X70912091Y-101149619D01*
X70912091Y-101149619D02*
X70816853Y-101292476D01*
X70816853Y-101292476D02*
X70721615Y-101387714D01*
X70721615Y-101387714D02*
X70626377Y-101435333D01*
X72102567Y-101149619D02*
X71626377Y-101149619D01*
X71626377Y-101149619D02*
X71578758Y-101625809D01*
X71578758Y-101625809D02*
X71626377Y-101578190D01*
X71626377Y-101578190D02*
X71721615Y-101530571D01*
X71721615Y-101530571D02*
X71959710Y-101530571D01*
X71959710Y-101530571D02*
X72054948Y-101578190D01*
X72054948Y-101578190D02*
X72102567Y-101625809D01*
X72102567Y-101625809D02*
X72150186Y-101721047D01*
X72150186Y-101721047D02*
X72150186Y-101959142D01*
X72150186Y-101959142D02*
X72102567Y-102054380D01*
X72102567Y-102054380D02*
X72054948Y-102102000D01*
X72054948Y-102102000D02*
X71959710Y-102149619D01*
X71959710Y-102149619D02*
X71721615Y-102149619D01*
X71721615Y-102149619D02*
X71626377Y-102102000D01*
X71626377Y-102102000D02*
X71578758Y-102054380D01*
D11*
X98799999Y-70811271D02*
X98799999Y-70454128D01*
X99157142Y-70596985D02*
X98799999Y-70454128D01*
X98799999Y-70454128D02*
X98442856Y-70596985D01*
X99014285Y-70168414D02*
X98799999Y-70454128D01*
X98799999Y-70454128D02*
X98585713Y-70168414D01*
X46799999Y-70811271D02*
X46799999Y-70454128D01*
X47157142Y-70596985D02*
X46799999Y-70454128D01*
X46799999Y-70454128D02*
X46442856Y-70596985D01*
X47014285Y-70168414D02*
X46799999Y-70454128D01*
X46799999Y-70454128D02*
X46585713Y-70168414D01*
X63188728Y-42949999D02*
X63545871Y-42949999D01*
X63403014Y-43307142D02*
X63545871Y-42949999D01*
X63545871Y-42949999D02*
X63403014Y-42592856D01*
X63831585Y-43164285D02*
X63545871Y-42949999D01*
X63545871Y-42949999D02*
X63831585Y-42735713D01*
X76999999Y-64811271D02*
X76999999Y-64454128D01*
X77357142Y-64596985D02*
X76999999Y-64454128D01*
X76999999Y-64454128D02*
X76642856Y-64596985D01*
X77214285Y-64168414D02*
X76999999Y-64454128D01*
X76999999Y-64454128D02*
X76785713Y-64168414D01*
D13*
G36*
X89140030Y-37063135D02*
G01*
X89158902Y-37077466D01*
X89184573Y-37104310D01*
X89219202Y-37146087D01*
X89264947Y-37205216D01*
X89311049Y-37266714D01*
X89370872Y-37347095D01*
X89436667Y-37435317D01*
X89502484Y-37523416D01*
X89562376Y-37603426D01*
X89595127Y-37647078D01*
X89724747Y-37819625D01*
X89806977Y-37802359D01*
X89966278Y-37777199D01*
X90140737Y-37764205D01*
X90322153Y-37763260D01*
X90502328Y-37774246D01*
X90673063Y-37797046D01*
X90766662Y-37816135D01*
X90781574Y-37817352D01*
X90796834Y-37811478D01*
X90815692Y-37795386D01*
X90841398Y-37765953D01*
X90877200Y-37720051D01*
X90905208Y-37682866D01*
X91009451Y-37543757D01*
X91098751Y-37424944D01*
X91173831Y-37325485D01*
X91235412Y-37244438D01*
X91284213Y-37180860D01*
X91320957Y-37133809D01*
X91346365Y-37102344D01*
X91361157Y-37085521D01*
X91364789Y-37082311D01*
X91402226Y-37072391D01*
X91439669Y-37083576D01*
X91458641Y-37101416D01*
X91464041Y-37112081D01*
X91468425Y-37128820D01*
X91471896Y-37154192D01*
X91474554Y-37190756D01*
X91476499Y-37241072D01*
X91477834Y-37307699D01*
X91478659Y-37393196D01*
X91479074Y-37500123D01*
X91479182Y-37622122D01*
X91479245Y-37749575D01*
X91479528Y-37853509D01*
X91480174Y-37936797D01*
X91481324Y-38002312D01*
X91483118Y-38052924D01*
X91485700Y-38091506D01*
X91489210Y-38120930D01*
X91493789Y-38144066D01*
X91499580Y-38163788D01*
X91506725Y-38182967D01*
X91506843Y-38183264D01*
X91521150Y-38220447D01*
X91542519Y-38277403D01*
X91569405Y-38349899D01*
X91600265Y-38433699D01*
X91633557Y-38524570D01*
X91667738Y-38618276D01*
X91701265Y-38710584D01*
X91732595Y-38797258D01*
X91760185Y-38874066D01*
X91782492Y-38936771D01*
X91797974Y-38981140D01*
X91802774Y-38995434D01*
X91817177Y-39035040D01*
X91830219Y-39063249D01*
X91836545Y-39071786D01*
X91851580Y-39073140D01*
X91890411Y-39074376D01*
X91950443Y-39075471D01*
X92029083Y-39076400D01*
X92123738Y-39077138D01*
X92231813Y-39077661D01*
X92350715Y-39077944D01*
X92477850Y-39077962D01*
X92488539Y-39077951D01*
X92657757Y-39078055D01*
X92802994Y-39078765D01*
X92923845Y-39080073D01*
X93019907Y-39081972D01*
X93090778Y-39084452D01*
X93136055Y-39087507D01*
X93155054Y-39090967D01*
X93189397Y-39120165D01*
X93200327Y-39156003D01*
X93188543Y-39190742D01*
X93167508Y-39222844D01*
X92526453Y-39222844D01*
X92374486Y-39222973D01*
X92247096Y-39223391D01*
X92142472Y-39224146D01*
X92058802Y-39225284D01*
X91994276Y-39226853D01*
X91947082Y-39228899D01*
X91915408Y-39231470D01*
X91897443Y-39234613D01*
X91891377Y-39238374D01*
X91891476Y-39239337D01*
X91898345Y-39259415D01*
X91910743Y-39296844D01*
X91926101Y-39343861D01*
X91927507Y-39348194D01*
X91943438Y-39394762D01*
X91957499Y-39431388D01*
X91966882Y-39450808D01*
X91967470Y-39451541D01*
X91973822Y-39456322D01*
X91985032Y-39460204D01*
X92003731Y-39463299D01*
X92032553Y-39465717D01*
X92074128Y-39467570D01*
X92131089Y-39468968D01*
X92206069Y-39470022D01*
X92301699Y-39470844D01*
X92420611Y-39471544D01*
X92444759Y-39471666D01*
X92556820Y-39472392D01*
X92645383Y-39473438D01*
X92713338Y-39474969D01*
X92763574Y-39477148D01*
X92798984Y-39480139D01*
X92822456Y-39484106D01*
X92836881Y-39489213D01*
X92843902Y-39494280D01*
X92862950Y-39529221D01*
X92856602Y-39568663D01*
X92845968Y-39586395D01*
X92839649Y-39593572D01*
X92830461Y-39599213D01*
X92815530Y-39603462D01*
X92791982Y-39606460D01*
X92756941Y-39608350D01*
X92707532Y-39609275D01*
X92640881Y-39609377D01*
X92554112Y-39608799D01*
X92444351Y-39607685D01*
X92421835Y-39607437D01*
X92305397Y-39606316D01*
X92212896Y-39605870D01*
X92141885Y-39606179D01*
X92089920Y-39607325D01*
X92054553Y-39609390D01*
X92033339Y-39612454D01*
X92023832Y-39616599D01*
X92022999Y-39620715D01*
X92029717Y-39641254D01*
X92041527Y-39679617D01*
X92056125Y-39728296D01*
X92059367Y-39739255D01*
X92089105Y-39840030D01*
X92267123Y-39845232D01*
X92340150Y-39847758D01*
X92391316Y-39850809D01*
X92425152Y-39855085D01*
X92446187Y-39861289D01*
X92458950Y-39870119D01*
X92463564Y-39875628D01*
X92480717Y-39915979D01*
X92472480Y-39953228D01*
X92461252Y-39967408D01*
X92445545Y-39977172D01*
X92418640Y-39983473D01*
X92375766Y-39986920D01*
X92312153Y-39988118D01*
X92298516Y-39988143D01*
X92239994Y-39988741D01*
X92191850Y-39990360D01*
X92159820Y-39992737D01*
X92149677Y-39994980D01*
X92151456Y-40009016D01*
X92160303Y-40044385D01*
X92175148Y-40097320D01*
X92194922Y-40164050D01*
X92218556Y-40240807D01*
X92227361Y-40268773D01*
X92324583Y-40584586D01*
X92415951Y-40898932D01*
X92500861Y-41209212D01*
X92578710Y-41512830D01*
X92648894Y-41807188D01*
X92710810Y-42089690D01*
X92763855Y-42357739D01*
X92807426Y-42608736D01*
X92840919Y-42840085D01*
X92857153Y-42980185D01*
X92876940Y-43255562D01*
X92877983Y-43513413D01*
X92860333Y-43753562D01*
X92824040Y-43975832D01*
X92769155Y-44180048D01*
X92695728Y-44366032D01*
X92603809Y-44533608D01*
X92493450Y-44682601D01*
X92364701Y-44812835D01*
X92321225Y-44849241D01*
X92272070Y-44885724D01*
X92213061Y-44925138D01*
X92149164Y-44964655D01*
X92085344Y-45001449D01*
X92026568Y-45032694D01*
X91977803Y-45055563D01*
X91944014Y-45067229D01*
X91936600Y-45068143D01*
X91911099Y-45073784D01*
X91879394Y-45086783D01*
X91848085Y-45098955D01*
X91800754Y-45113491D01*
X91747219Y-45127395D01*
X91743078Y-45128364D01*
X91695489Y-45139731D01*
X91659048Y-45149064D01*
X91640376Y-45154652D01*
X91639346Y-45155179D01*
X91644938Y-45166544D01*
X91663666Y-45194725D01*
X91692649Y-45235562D01*
X91729006Y-45284899D01*
X91731652Y-45288429D01*
X91886051Y-45473597D01*
X92054769Y-45637360D01*
X92236575Y-45779146D01*
X92430239Y-45898385D01*
X92634530Y-45994505D01*
X92848216Y-46066936D01*
X93070068Y-46115107D01*
X93298855Y-46138448D01*
X93533345Y-46136387D01*
X93556681Y-46134790D01*
X93772541Y-46108370D01*
X93985662Y-46061960D01*
X94190721Y-45997152D01*
X94382394Y-45915542D01*
X94500750Y-45852212D01*
X94581644Y-45811226D01*
X94653722Y-45789949D01*
X94723875Y-45786883D01*
X94770188Y-45793629D01*
X94854206Y-45823428D01*
X94923983Y-45872567D01*
X94977509Y-45936999D01*
X95012769Y-46012676D01*
X95027752Y-46095552D01*
X95020445Y-46181581D01*
X94997171Y-46250013D01*
X94972400Y-46294360D01*
X94940085Y-46333762D01*
X94896429Y-46371205D01*
X94837634Y-46409675D01*
X94759904Y-46452157D01*
X94705312Y-46479486D01*
X94528919Y-46558725D01*
X94344364Y-46628572D01*
X94158674Y-46686799D01*
X93978876Y-46731179D01*
X93828230Y-46757399D01*
X93776479Y-46764768D01*
X93735236Y-46771493D01*
X93711126Y-46776460D01*
X93707891Y-46777620D01*
X93689789Y-46780907D01*
X93650063Y-46783694D01*
X93593476Y-46785938D01*
X93524790Y-46787598D01*
X93448768Y-46788635D01*
X93370171Y-46789006D01*
X93293761Y-46788670D01*
X93224302Y-46787588D01*
X93166554Y-46785717D01*
X93125281Y-46783016D01*
X93121935Y-46782665D01*
X92868973Y-46742423D01*
X92620033Y-46678913D01*
X92378567Y-46593478D01*
X92148032Y-46487463D01*
X91931881Y-46362212D01*
X91793651Y-46265818D01*
X91718684Y-46205524D01*
X91633173Y-46130281D01*
X91542992Y-46045802D01*
X91454014Y-45957799D01*
X91372112Y-45871984D01*
X91303158Y-45794072D01*
X91281573Y-45767725D01*
X91220197Y-45686825D01*
X91153869Y-45592895D01*
X91087731Y-45493707D01*
X91026926Y-45397032D01*
X90976596Y-45310641D01*
X90965385Y-45289927D01*
X90921468Y-45207076D01*
X91085771Y-45207076D01*
X91087763Y-45221763D01*
X91103217Y-45254139D01*
X91129841Y-45300726D01*
X91165340Y-45358043D01*
X91207421Y-45422612D01*
X91253792Y-45490952D01*
X91302157Y-45559583D01*
X91350225Y-45625027D01*
X91395702Y-45683803D01*
X91417843Y-45710911D01*
X91599970Y-45909950D01*
X91793759Y-46085340D01*
X91999556Y-46237271D01*
X92217706Y-46365935D01*
X92448555Y-46471523D01*
X92692450Y-46554225D01*
X92949735Y-46614233D01*
X93095545Y-46637428D01*
X93131848Y-46640578D01*
X93185568Y-46643030D01*
X93252060Y-46644790D01*
X93326678Y-46645863D01*
X93404775Y-46646255D01*
X93481707Y-46645971D01*
X93552825Y-46645017D01*
X93613485Y-46643398D01*
X93659040Y-46641119D01*
X93684844Y-46638187D01*
X93688701Y-46636736D01*
X93688696Y-46621687D01*
X93681908Y-46589906D01*
X93674902Y-46565137D01*
X93664322Y-46519804D01*
X93654725Y-46459893D01*
X93647949Y-46397203D01*
X93647245Y-46387623D01*
X93639626Y-46275467D01*
X93387378Y-46275183D01*
X93288124Y-46274499D01*
X93208770Y-46272375D01*
X93142844Y-46268328D01*
X93083876Y-46261871D01*
X93025392Y-46252521D01*
X92987387Y-46245229D01*
X92749801Y-46184620D01*
X92524737Y-46100824D01*
X92312510Y-45994052D01*
X92113437Y-45864515D01*
X91927833Y-45712425D01*
X91756014Y-45537992D01*
X91598297Y-45341426D01*
X91566926Y-45297253D01*
X91492283Y-45189897D01*
X91291109Y-45196716D01*
X91221236Y-45199295D01*
X91161350Y-45201907D01*
X91116098Y-45204317D01*
X91090126Y-45206291D01*
X91085771Y-45207076D01*
X90921468Y-45207076D01*
X90920004Y-45204314D01*
X90346363Y-45195605D01*
X90209058Y-45193652D01*
X90065787Y-45191852D01*
X89921819Y-45190254D01*
X89782424Y-45188910D01*
X89652871Y-45187870D01*
X89538429Y-45187183D01*
X89444366Y-45186900D01*
X89433133Y-45186896D01*
X89281251Y-45185553D01*
X89151051Y-45181153D01*
X89037943Y-45173142D01*
X88937339Y-45160965D01*
X88844649Y-45144066D01*
X88755284Y-45121891D01*
X88665045Y-45094016D01*
X88478538Y-45019021D01*
X88310552Y-44925296D01*
X88161176Y-44812999D01*
X88030501Y-44682286D01*
X87918616Y-44533315D01*
X87825609Y-44366242D01*
X87751572Y-44181224D01*
X87696594Y-43978419D01*
X87660763Y-43757983D01*
X87644170Y-43520073D01*
X87645144Y-43307436D01*
X87652187Y-43159221D01*
X87659524Y-43058510D01*
X87792540Y-43058510D01*
X87792918Y-43077774D01*
X87793137Y-43078263D01*
X87808251Y-43085258D01*
X87840612Y-43092670D01*
X87860814Y-43095851D01*
X87999508Y-43123200D01*
X88148100Y-43167632D01*
X88299387Y-43226134D01*
X88446164Y-43295690D01*
X88581227Y-43373288D01*
X88669424Y-43434137D01*
X88813046Y-43556175D01*
X88933590Y-43687677D01*
X89030715Y-43827214D01*
X89104078Y-43973360D01*
X89153337Y-44124687D01*
X89178148Y-44279766D01*
X89178169Y-44437171D01*
X89153058Y-44595473D01*
X89102472Y-44753245D01*
X89026067Y-44909060D01*
X89024164Y-44912334D01*
X88997974Y-44959471D01*
X88979402Y-44997316D01*
X88970800Y-45020801D01*
X88971456Y-45025912D01*
X88998071Y-45031645D01*
X89043372Y-45037960D01*
X89099695Y-45044070D01*
X89159372Y-45049189D01*
X89214737Y-45052527D01*
X89237921Y-45053275D01*
X89325544Y-45054948D01*
X89330404Y-44958701D01*
X89343305Y-44866212D01*
X89373550Y-44788676D01*
X89423814Y-44721831D01*
X89496773Y-44661416D01*
X89530918Y-44639311D01*
X89536129Y-44633947D01*
X89540531Y-44623245D01*
X89544240Y-44604921D01*
X89547367Y-44576690D01*
X89550027Y-44536267D01*
X89552333Y-44481369D01*
X89554398Y-44409709D01*
X89556337Y-44319005D01*
X89558262Y-44206971D01*
X89560287Y-44071323D01*
X89560745Y-44038948D01*
X89562774Y-43898654D01*
X89564643Y-43782372D01*
X89566478Y-43687726D01*
X89568408Y-43612340D01*
X89570559Y-43553839D01*
X89573059Y-43509846D01*
X89576035Y-43477985D01*
X89579615Y-43455881D01*
X89583924Y-43441157D01*
X89589092Y-43431437D01*
X89593571Y-43426041D01*
X89617343Y-43408630D01*
X89644972Y-43410020D01*
X89654715Y-43413161D01*
X89691286Y-43426020D01*
X89694944Y-44052458D01*
X89695537Y-44179439D01*
X89695809Y-44299008D01*
X89695773Y-44408441D01*
X89695446Y-44505013D01*
X89694839Y-44585998D01*
X89693969Y-44648673D01*
X89692848Y-44690311D01*
X89691543Y-44707992D01*
X89671934Y-44735013D01*
X89637371Y-44750097D01*
X89571318Y-44779630D01*
X89518358Y-44825396D01*
X89481922Y-44882331D01*
X89465445Y-44945373D01*
X89469237Y-44998091D01*
X89481088Y-45048350D01*
X89588586Y-45052168D01*
X89696084Y-45055986D01*
X89688674Y-44984194D01*
X89685346Y-44909724D01*
X89694556Y-44851822D01*
X89718669Y-44802707D01*
X89757729Y-44756901D01*
X89809423Y-44715221D01*
X89856062Y-44698058D01*
X89896526Y-44705679D01*
X89914655Y-44719423D01*
X89931970Y-44744489D01*
X89930447Y-44770341D01*
X89908651Y-44801729D01*
X89881715Y-44828477D01*
X89845292Y-44867807D01*
X89826344Y-44905553D01*
X89820766Y-44932278D01*
X89817931Y-44966194D01*
X89824486Y-44987852D01*
X89845563Y-45007319D01*
X89866162Y-45021374D01*
X89898555Y-45040416D01*
X89928972Y-45050341D01*
X89967572Y-45053339D01*
X90009579Y-45052290D01*
X90100325Y-45048350D01*
X90103726Y-44244695D01*
X90104646Y-44063990D01*
X90105785Y-43908461D01*
X90107170Y-43776898D01*
X90108829Y-43668087D01*
X90110789Y-43580818D01*
X90113078Y-43513877D01*
X90115724Y-43466054D01*
X90118753Y-43436136D01*
X90122193Y-43422911D01*
X90122395Y-43422645D01*
X90146314Y-43410328D01*
X90178069Y-43408222D01*
X90193047Y-43409805D01*
X90205859Y-43412663D01*
X90216650Y-43418707D01*
X90225567Y-43429851D01*
X90232754Y-43448005D01*
X90238357Y-43475084D01*
X90242521Y-43512998D01*
X90245392Y-43563661D01*
X90247114Y-43628984D01*
X90247834Y-43710880D01*
X90247697Y-43811262D01*
X90246848Y-43932041D01*
X90245433Y-44075131D01*
X90243596Y-44242442D01*
X90243329Y-44266558D01*
X90234593Y-45054948D01*
X90329751Y-45054948D01*
X90405016Y-45050380D01*
X90459080Y-45035611D01*
X90495685Y-45009045D01*
X90516095Y-44975455D01*
X90525872Y-44942921D01*
X90522069Y-44913931D01*
X90511457Y-44888829D01*
X90488357Y-44854417D01*
X90460428Y-44830174D01*
X90456938Y-44828396D01*
X90425859Y-44803396D01*
X90412817Y-44770248D01*
X90417693Y-44736867D01*
X90440365Y-44711166D01*
X90458856Y-44703536D01*
X90504202Y-44704771D01*
X90553634Y-44726951D01*
X90600821Y-44766776D01*
X90616909Y-44785932D01*
X90635663Y-44812884D01*
X90646895Y-44838360D01*
X90652500Y-44870410D01*
X90654375Y-44917088D01*
X90654506Y-44945593D01*
X90654506Y-45055917D01*
X90760065Y-45052133D01*
X90865623Y-45048350D01*
X90869790Y-44990032D01*
X90870691Y-44946343D01*
X90867826Y-44908984D01*
X90866301Y-44901209D01*
X90845738Y-44859322D01*
X90809059Y-44816436D01*
X90764756Y-44781082D01*
X90729717Y-44764012D01*
X90693363Y-44748588D01*
X90667047Y-44730626D01*
X90664403Y-44727697D01*
X90660330Y-44716437D01*
X90656928Y-44692631D01*
X90654151Y-44654453D01*
X90651950Y-44600079D01*
X90650278Y-44527684D01*
X90649088Y-44435443D01*
X90648332Y-44321531D01*
X90647964Y-44184124D01*
X90647909Y-44092141D01*
X90647999Y-43946547D01*
X90648317Y-43825071D01*
X90648935Y-43725445D01*
X90649927Y-43645397D01*
X90651363Y-43582659D01*
X90653318Y-43534959D01*
X90655862Y-43500027D01*
X90659069Y-43475594D01*
X90663011Y-43459390D01*
X90667760Y-43449144D01*
X90668449Y-43448117D01*
X90696782Y-43425366D01*
X90732124Y-43418576D01*
X90764330Y-43428098D01*
X90779393Y-43444314D01*
X90783052Y-43464720D01*
X90786168Y-43510780D01*
X90788725Y-43581766D01*
X90790706Y-43676947D01*
X90792095Y-43795595D01*
X90792875Y-43936979D01*
X90793052Y-44056983D01*
X90793071Y-44196631D01*
X90793202Y-44312207D01*
X90793552Y-44406031D01*
X90794230Y-44480421D01*
X90795345Y-44537695D01*
X90797004Y-44580172D01*
X90799315Y-44610170D01*
X90802388Y-44630009D01*
X90806331Y-44642006D01*
X90811251Y-44648479D01*
X90817258Y-44651749D01*
X90820900Y-44652969D01*
X90860085Y-44674567D01*
X90904147Y-44712783D01*
X90946279Y-44760573D01*
X90979668Y-44810895D01*
X90986318Y-44824039D01*
X91009835Y-44893381D01*
X91017232Y-44971289D01*
X91017235Y-44972480D01*
X91017364Y-45054948D01*
X91214331Y-45054948D01*
X91379752Y-45050919D01*
X91525661Y-45038008D01*
X91657802Y-45014979D01*
X91781920Y-44980594D01*
X91903759Y-44933617D01*
X92006974Y-44884332D01*
X92156432Y-44796223D01*
X92287237Y-44694650D01*
X92400098Y-44578375D01*
X92495724Y-44446157D01*
X92574824Y-44296757D01*
X92638106Y-44128937D01*
X92686279Y-43941458D01*
X92720053Y-43733079D01*
X92732103Y-43616714D01*
X92739032Y-43464760D01*
X92735939Y-43290437D01*
X92723101Y-43095674D01*
X92700797Y-42882396D01*
X92669304Y-42652533D01*
X92628902Y-42408011D01*
X92579867Y-42150757D01*
X92522478Y-41882700D01*
X92457014Y-41605768D01*
X92421842Y-41466519D01*
X92382909Y-41319122D01*
X92337075Y-41151718D01*
X92285790Y-40969334D01*
X92230503Y-40776996D01*
X92172665Y-40579733D01*
X92113723Y-40382569D01*
X92055127Y-40190533D01*
X92038425Y-40136584D01*
X91992313Y-39988143D01*
X91709662Y-39988143D01*
X91427011Y-39988143D01*
X91405820Y-39955802D01*
X91391858Y-39915850D01*
X91401564Y-39880601D01*
X91433165Y-39856155D01*
X91434988Y-39855439D01*
X91458476Y-39851407D01*
X91503390Y-39847920D01*
X91564766Y-39845207D01*
X91637642Y-39843496D01*
X91705242Y-39843000D01*
X91789576Y-39842912D01*
X91850977Y-39842372D01*
X91892900Y-39840964D01*
X91918801Y-39838274D01*
X91932136Y-39833884D01*
X91936361Y-39827381D01*
X91934933Y-39818349D01*
X91934050Y-39815498D01*
X91925484Y-39789276D01*
X91911521Y-39747282D01*
X91895665Y-39700043D01*
X91866010Y-39612091D01*
X91646302Y-39608473D01*
X91565401Y-39607002D01*
X91506801Y-39605274D01*
X91466413Y-39602703D01*
X91440149Y-39598701D01*
X91423923Y-39592682D01*
X91413647Y-39584060D01*
X91406406Y-39574047D01*
X91393934Y-39534503D01*
X91406689Y-39496705D01*
X91425585Y-39477263D01*
X91449659Y-39469443D01*
X91498875Y-39464132D01*
X91573675Y-39461294D01*
X91627623Y-39460770D01*
X91693377Y-39459891D01*
X91748504Y-39457770D01*
X91788239Y-39454696D01*
X91807819Y-39450959D01*
X91809052Y-39449718D01*
X91804798Y-39433187D01*
X91793468Y-39398415D01*
X91777207Y-39351886D01*
X91770891Y-39334416D01*
X91752128Y-39284915D01*
X91734835Y-39251133D01*
X91713781Y-39230363D01*
X91683736Y-39219898D01*
X91639470Y-39217030D01*
X91575751Y-39219053D01*
X91550391Y-39220292D01*
X91493258Y-39222707D01*
X91456454Y-39222383D01*
X91433972Y-39218259D01*
X91419807Y-39209272D01*
X91408547Y-39195215D01*
X91389697Y-39159533D01*
X91392436Y-39130801D01*
X91413208Y-39104091D01*
X91429928Y-39091136D01*
X91452590Y-39083186D01*
X91487461Y-39079103D01*
X91540805Y-39077747D01*
X91558351Y-39077701D01*
X91610646Y-39076624D01*
X91651192Y-39073738D01*
X91674100Y-39069563D01*
X91677104Y-39067224D01*
X91672672Y-39050739D01*
X91660275Y-39013264D01*
X91641262Y-38958500D01*
X91616982Y-38890146D01*
X91588784Y-38811905D01*
X91558018Y-38727477D01*
X91526032Y-38640563D01*
X91494176Y-38554864D01*
X91463798Y-38474080D01*
X91436247Y-38401913D01*
X91412874Y-38342064D01*
X91411572Y-38338792D01*
X91340636Y-38160662D01*
X91334039Y-37758220D01*
X91327442Y-37355779D01*
X91103130Y-37655758D01*
X91041379Y-37737350D01*
X90984832Y-37810159D01*
X90935544Y-37871672D01*
X90895569Y-37919376D01*
X90866961Y-37950756D01*
X90851776Y-37963301D01*
X90851726Y-37963316D01*
X90828008Y-37963752D01*
X90785333Y-37958949D01*
X90730406Y-37949813D01*
X90686791Y-37941008D01*
X90637127Y-37930897D01*
X90590765Y-37923319D01*
X90542590Y-37917923D01*
X90487492Y-37914357D01*
X90420359Y-37912271D01*
X90336078Y-37911312D01*
X90252065Y-37911121D01*
X90149800Y-37911439D01*
X90068852Y-37912619D01*
X90004152Y-37915006D01*
X89950631Y-37918941D01*
X89903222Y-37924767D01*
X89856857Y-37932826D01*
X89821065Y-37940249D01*
X89763069Y-37951690D01*
X89713321Y-37959378D01*
X89678297Y-37962433D01*
X89666095Y-37961374D01*
X89651477Y-37948320D01*
X89624615Y-37917444D01*
X89588433Y-37872519D01*
X89545854Y-37817318D01*
X89499805Y-37755613D01*
X89453207Y-37691178D01*
X89420392Y-37644389D01*
X89405157Y-37623528D01*
X89377528Y-37586791D01*
X89341281Y-37539158D01*
X89300187Y-37485610D01*
X89295442Y-37479453D01*
X89189883Y-37342584D01*
X89182861Y-37745026D01*
X89175838Y-38147467D01*
X89105116Y-38325597D01*
X89078672Y-38393656D01*
X89046161Y-38479597D01*
X89010195Y-38576382D01*
X88973386Y-38676973D01*
X88938346Y-38774331D01*
X88932519Y-38790714D01*
X88830644Y-39077701D01*
X88894809Y-39077701D01*
X88949110Y-39084810D01*
X88987285Y-39104349D01*
X89005792Y-39133633D01*
X89004498Y-39160843D01*
X88989050Y-39191944D01*
X88961812Y-39211162D01*
X88917838Y-39220700D01*
X88865267Y-39222844D01*
X88776605Y-39222844D01*
X88736777Y-39341597D01*
X88696949Y-39460350D01*
X88820285Y-39460350D01*
X88876914Y-39461216D01*
X88925087Y-39463534D01*
X88957579Y-39466886D01*
X88965503Y-39468747D01*
X88992024Y-39491378D01*
X89003459Y-39526861D01*
X88997195Y-39564789D01*
X88992007Y-39574287D01*
X88982164Y-39587354D01*
X88969640Y-39596151D01*
X88949510Y-39601520D01*
X88916850Y-39604304D01*
X88866734Y-39605347D01*
X88809649Y-39605493D01*
X88647738Y-39605493D01*
X88612031Y-39715136D01*
X88595973Y-39765424D01*
X88583660Y-39805850D01*
X88576988Y-39830103D01*
X88576325Y-39833889D01*
X88588725Y-39837188D01*
X88622756Y-39839954D01*
X88673656Y-39841950D01*
X88736668Y-39842936D01*
X88758116Y-39843000D01*
X88836453Y-39843655D01*
X88892768Y-39845902D01*
X88931400Y-39850163D01*
X88956689Y-39856861D01*
X88969233Y-39863540D01*
X88991107Y-39891627D01*
X88998633Y-39928140D01*
X88990568Y-39961627D01*
X88981110Y-39973002D01*
X88960923Y-39978856D01*
X88917184Y-39983878D01*
X88852724Y-39987853D01*
X88770374Y-39990568D01*
X88742148Y-39991112D01*
X88520634Y-39994740D01*
X88463795Y-40176875D01*
X88406956Y-40359010D01*
X88479860Y-40460563D01*
X88575142Y-40612614D01*
X88644479Y-40766964D01*
X88687780Y-40923168D01*
X88704951Y-41080780D01*
X88695902Y-41239358D01*
X88668325Y-41371709D01*
X88611448Y-41528377D01*
X88531391Y-41674639D01*
X88430033Y-41808355D01*
X88309256Y-41927384D01*
X88170940Y-42029586D01*
X88017221Y-42112705D01*
X87935077Y-42149951D01*
X87899386Y-42339047D01*
X87884100Y-42423105D01*
X87868426Y-42514772D01*
X87852896Y-42610345D01*
X87838042Y-42706123D01*
X87824397Y-42798403D01*
X87812492Y-42883484D01*
X87802859Y-42957664D01*
X87796032Y-43017240D01*
X87792540Y-43058510D01*
X87659524Y-43058510D01*
X87663020Y-43010524D01*
X87678052Y-42859176D01*
X87697693Y-42703007D01*
X87722350Y-42539848D01*
X87752434Y-42367528D01*
X87788354Y-42183878D01*
X87830518Y-41986728D01*
X87879337Y-41773909D01*
X87935219Y-41543250D01*
X87998573Y-41292582D01*
X88069809Y-41019736D01*
X88093221Y-40931571D01*
X88113095Y-40859311D01*
X88139605Y-40766435D01*
X88171402Y-40657478D01*
X88207136Y-40536975D01*
X88245457Y-40409463D01*
X88285016Y-40279477D01*
X88324462Y-40151553D01*
X88343527Y-40090402D01*
X88375537Y-39988143D01*
X88166796Y-39988143D01*
X88085046Y-39987720D01*
X88025705Y-39986212D01*
X87984799Y-39983260D01*
X87958356Y-39978505D01*
X87942404Y-39971589D01*
X87937319Y-39967408D01*
X87918272Y-39932473D01*
X87924629Y-39893019D01*
X87935307Y-39875210D01*
X87943654Y-39866296D01*
X87956188Y-39859338D01*
X87976035Y-39854069D01*
X88006321Y-39850224D01*
X88050171Y-39847538D01*
X88110713Y-39845745D01*
X88191071Y-39844580D01*
X88294372Y-39843778D01*
X88306410Y-39843705D01*
X88425742Y-39843000D01*
X88461449Y-39733357D01*
X88477523Y-39682891D01*
X88489842Y-39642104D01*
X88496503Y-39617390D01*
X88497156Y-39613426D01*
X88484459Y-39611148D01*
X88448357Y-39609273D01*
X88391829Y-39607841D01*
X88317858Y-39606892D01*
X88229425Y-39606465D01*
X88129511Y-39606601D01*
X88033987Y-39607222D01*
X87911161Y-39608255D01*
X87812044Y-39608881D01*
X87733960Y-39608979D01*
X87674230Y-39608428D01*
X87630176Y-39607105D01*
X87599120Y-39604889D01*
X87578384Y-39601658D01*
X87565289Y-39597290D01*
X87557159Y-39591664D01*
X87551788Y-39585309D01*
X87540365Y-39552415D01*
X87543803Y-39515326D01*
X87560468Y-39486923D01*
X87564669Y-39483775D01*
X87581611Y-39481092D01*
X87621227Y-39478667D01*
X87679800Y-39476607D01*
X87753617Y-39475020D01*
X87838960Y-39474010D01*
X87916584Y-39473687D01*
X88018397Y-39473259D01*
X88120692Y-39472202D01*
X88217595Y-39470623D01*
X88303229Y-39468627D01*
X88371719Y-39466321D01*
X88400981Y-39464901D01*
X88548910Y-39456377D01*
X88588071Y-39339610D01*
X88627233Y-39222844D01*
X87929148Y-39222844D01*
X87231063Y-39222844D01*
X87210616Y-39191638D01*
X87197932Y-39152159D01*
X87208191Y-39115653D01*
X87238370Y-39089813D01*
X87252583Y-39084835D01*
X87275253Y-39082464D01*
X87320509Y-39080498D01*
X87384549Y-39079000D01*
X87463571Y-39078035D01*
X87553775Y-39077666D01*
X87651358Y-39077957D01*
X87659286Y-39078010D01*
X87779142Y-39078690D01*
X87911850Y-39079177D01*
X88048721Y-39079456D01*
X88181063Y-39079513D01*
X88300184Y-39079334D01*
X88353544Y-39079145D01*
X88678348Y-39077701D01*
X88715307Y-38975441D01*
X88729342Y-38936842D01*
X88750985Y-38877617D01*
X88778721Y-38801901D01*
X88811032Y-38713832D01*
X88846402Y-38617544D01*
X88883314Y-38517173D01*
X88893371Y-38489846D01*
X89034476Y-38106511D01*
X89044150Y-37605794D01*
X89046817Y-37471460D01*
X89049366Y-37361146D01*
X89052150Y-37272486D01*
X89055524Y-37203115D01*
X89059841Y-37150667D01*
X89065452Y-37112776D01*
X89072713Y-37087078D01*
X89081975Y-37071207D01*
X89093592Y-37062796D01*
X89107917Y-37059481D01*
X89125303Y-37058896D01*
X89125802Y-37058896D01*
X89140030Y-37063135D01*
G37*
G36*
X91696487Y-41567636D02*
G01*
X91790248Y-41592289D01*
X91880715Y-41641030D01*
X91958702Y-41707343D01*
X92039399Y-41808176D01*
X92103239Y-41925861D01*
X92149782Y-42056585D01*
X92178587Y-42196540D01*
X92189217Y-42341915D01*
X92181229Y-42488899D01*
X92154185Y-42633682D01*
X92107644Y-42772455D01*
X92086958Y-42818300D01*
X92022804Y-42928188D01*
X91947332Y-43017668D01*
X91862315Y-43085347D01*
X91769527Y-43129836D01*
X91670744Y-43149740D01*
X91663909Y-43150164D01*
X91602667Y-43149601D01*
X91546105Y-43142541D01*
X91523044Y-43136698D01*
X91425522Y-43091067D01*
X91337370Y-43021662D01*
X91259636Y-42929751D01*
X91193370Y-42816605D01*
X91139622Y-42683491D01*
X91134059Y-42666223D01*
X91121765Y-42623862D01*
X91113197Y-42584110D01*
X91107721Y-42540703D01*
X91104703Y-42487376D01*
X91103509Y-42417865D01*
X91103408Y-42363207D01*
X91105163Y-42257341D01*
X91111024Y-42170879D01*
X91122360Y-42096980D01*
X91140543Y-42028802D01*
X91166943Y-41959502D01*
X91197574Y-41893155D01*
X91261289Y-41785436D01*
X91335941Y-41698331D01*
X91419159Y-41632419D01*
X91508570Y-41588281D01*
X91601803Y-41566493D01*
X91696487Y-41567636D01*
G37*
G36*
X90292633Y-39564645D02*
G01*
X90345068Y-39592054D01*
X90381705Y-39634391D01*
X90401782Y-39685814D01*
X90404535Y-39740486D01*
X90389200Y-39792567D01*
X90355014Y-39836217D01*
X90330360Y-39853195D01*
X90288806Y-39875987D01*
X90295504Y-40107598D01*
X90297175Y-40191198D01*
X90297129Y-40262415D01*
X90295456Y-40317357D01*
X90292245Y-40352130D01*
X90289672Y-40361598D01*
X90266288Y-40380725D01*
X90236195Y-40381265D01*
X90215894Y-40367493D01*
X90211244Y-40349491D01*
X90206344Y-40309672D01*
X90201582Y-40252599D01*
X90197347Y-40182835D01*
X90194349Y-40114201D01*
X90185817Y-39877402D01*
X90139935Y-39839583D01*
X90099438Y-39792373D01*
X90081101Y-39740066D01*
X90082469Y-39687081D01*
X90101088Y-39637837D01*
X90134503Y-39596754D01*
X90180261Y-39568251D01*
X90235906Y-39556746D01*
X90292633Y-39564645D01*
G37*
G36*
X90814282Y-38761732D02*
G01*
X90871445Y-38780970D01*
X90919975Y-38816157D01*
X90955390Y-38865294D01*
X90973207Y-38926379D01*
X90973353Y-38970351D01*
X90956983Y-39034454D01*
X90920677Y-39084939D01*
X90861566Y-39125731D01*
X90858756Y-39127181D01*
X90815607Y-39147056D01*
X90782455Y-39154212D01*
X90746996Y-39150043D01*
X90720150Y-39142877D01*
X90686789Y-39126270D01*
X90649060Y-39097876D01*
X90634384Y-39083957D01*
X90609147Y-39055749D01*
X90595388Y-39030796D01*
X90589664Y-38999179D01*
X90588532Y-38951837D01*
X90589642Y-38904205D01*
X90595319Y-38873098D01*
X90609090Y-38848671D01*
X90634477Y-38821081D01*
X90635832Y-38819725D01*
X90691993Y-38779109D01*
X90752971Y-38760445D01*
X90814282Y-38761732D01*
G37*
G36*
X89760551Y-38738424D02*
G01*
X89816373Y-38757747D01*
X89869698Y-38797377D01*
X89904211Y-38849569D01*
X89920099Y-38908926D01*
X89917551Y-38970049D01*
X89896754Y-39027540D01*
X89857895Y-39076000D01*
X89804163Y-39108860D01*
X89742655Y-39127284D01*
X89691456Y-39126264D01*
X89642006Y-39104800D01*
X89616441Y-39086992D01*
X89565108Y-39034343D01*
X89536552Y-38974427D01*
X89531421Y-38911475D01*
X89550362Y-38849724D01*
X89574629Y-38813719D01*
X89631054Y-38763609D01*
X89693825Y-38738326D01*
X89760551Y-38738424D01*
G37*
D14*
X61300000Y-38150000D03*
D15*
X70500000Y-82700000D03*
X96500000Y-82700000D03*
D14*
X49300000Y-41150000D03*
D15*
X54750000Y-84700000D03*
X69500000Y-78700000D03*
D14*
X51300000Y-40650000D03*
D15*
X44000000Y-80700000D03*
X95000000Y-76700000D03*
X44500000Y-82700000D03*
X45000000Y-84700000D03*
D16*
X47800000Y-31150000D03*
D15*
X96000000Y-80700000D03*
X42000000Y-72700000D03*
X43000000Y-76700000D03*
D14*
X59300000Y-38650000D03*
D17*
X87000000Y-86200000D03*
X61000000Y-86200000D03*
D14*
X49300000Y-24900000D03*
D15*
X68000000Y-72700000D03*
D14*
X53300000Y-40150000D03*
D15*
X69000000Y-76700000D03*
X68500000Y-74700000D03*
X71000000Y-84700000D03*
X93150000Y-84700000D03*
X94500000Y-74700000D03*
X41150000Y-84700000D03*
X94000000Y-72700000D03*
X67150000Y-84700000D03*
X42500000Y-74700000D03*
X70000000Y-80700000D03*
X43500000Y-78700000D03*
X80750000Y-84700000D03*
D14*
X49300000Y-37300000D03*
X57300000Y-39150000D03*
X55300000Y-39650000D03*
D15*
X97000000Y-84700000D03*
X28750000Y-84700000D03*
D17*
X35000000Y-86200000D03*
D15*
X95500000Y-78700000D03*
D18*
X114100000Y-64400000D02*
G75*
G02*
X14100000Y-64400000I-50000000J0D01*
G01*
X14100000Y-64400000D02*
G75*
G02*
X114100000Y-64400000I50000000J0D01*
G01*
D19*
X0Y0D02*
X127000000Y0D01*
X127000000Y-127000000D01*
X0Y-127000000D01*
X0Y0D01*
M02*
