<?xml version="1.0" standalone="no"?>
 <!DOCTYPE svg PUBLIC "-//W3C//DTD SVG 1.1//EN" 
 "http://www.w3.org/Graphics/SVG/1.1/DTD/svg11.dtd"> 
<svg
  xmlns:svg="http://www.w3.org/2000/svg"
  xmlns="http://www.w3.org/2000/svg"
  xmlns:xlink="http://www.w3.org/1999/xlink"
  version="1.1"
  width="279.4000mm" height="215.9000mm" viewBox="0.0000 0.0000 279.4000 215.9000">
<title>SVG Image created as ImmunoprecipitationDevice_EdenFluidics-Flow_Pos.svg date 2024/08/19 12:26:14 </title>
  <desc>Image generated by PCBNEW </desc>
<g style="fill:#000000; fill-opacity:1.0000;stroke:#000000; stroke-opacity:1.0000;
stroke-linecap:round; stroke-linejoin:round;"
 transform="translate(0 0) scale(1 1)">
</g>
<g style="fill:none; 
stroke:#000000; stroke-width:0.1000; stroke-opacity:1; 
stroke-linecap:round; stroke-linejoin:round;">
<g transform="rotate(-270.000000 21.4750 3.3500)">
<text x="21.4750" y="4.1000"
textLength="1.1429" font-size="2.0000" lengthAdjust="spacingAndGlyphs"
text-anchor="middle" opacity="0">*</text>
</g>
<g class="stroked-text"><desc>*</desc>
<path d="M22.2863 3.3500
L21.9291 3.3500
" />
<path d="M22.0720 2.9929
L21.9291 3.3500
" />
<path d="M21.9291 3.3500
L22.0720 3.7071
" />
<path d="M21.6434 3.1357
L21.9291 3.3500
" />
<path d="M21.9291 3.3500
L21.6434 3.5643
" />
</g><path style="fill:#000000; fill-opacity:1.0000; stroke:none;fill-rule:evenodd;"
d="M 37.4000,16.4000
37.4000,13.9000
37.9500,13.9000
37.9500,16.4000
Z" /> 
<path style="fill:#000000; fill-opacity:1.0000; stroke:none;fill-rule:evenodd;"
d="M 28.1000,7.2500
28.1000,7.0500
28.2500,7.0500
28.2500,7.2500
Z" /> 
<path style="fill:#000000; fill-opacity:1.0000; stroke:none;fill-rule:evenodd;"
d="M 36.1000,21.5000
36.1000,21.3000
36.2500,21.3000
36.2500,21.5000
Z" /> 
<path style="fill:#000000; fill-opacity:1.0000; stroke:none;fill-rule:evenodd;"
d="M 24.1000,8.2500
24.1000,8.0500
24.2500,8.0500
24.2500,8.2500
Z" /> 
<path style="fill:#000000; fill-opacity:1.0000; stroke:none;fill-rule:evenodd;"
d="M 34.1000,5.7500
34.1000,5.5500
34.2500,5.5500
34.2500,5.7500
Z" /> 
<path style="fill:#000000; fill-opacity:1.0000; stroke:none;fill-rule:evenodd;"
d="M 36.1000,5.2500
36.1000,5.0500
36.2500,5.0500
36.2500,5.2500
Z" /> 
<path style="fill:#000000; fill-opacity:1.0000; stroke:none;fill-rule:evenodd;"
d="M 36.1000,9.1000
36.1000,8.9000
36.2500,8.9000
36.2500,9.1000
Z" /> 
<path style="fill:#000000; fill-opacity:1.0000; stroke:none;fill-rule:evenodd;"
d="M 32.1000,6.2500
32.1000,6.0500
32.2500,6.0500
32.2500,6.2500
Z" /> 
<path style="fill:#000000; fill-opacity:1.0000; stroke:none;fill-rule:evenodd;"
d="M 26.1000,7.7500
26.1000,7.5500
26.2500,7.5500
26.2500,7.7500
Z" /> 
<path style="fill:#000000; fill-opacity:1.0000; stroke:none;fill-rule:evenodd;"
d="M 30.1000,6.7500
30.1000,6.5500
30.2500,6.5500
30.2500,6.7500
Z" /> 
</g> 
</svg>
