<?xml version="1.0" standalone="no"?>
 <!DOCTYPE svg PUBLIC "-//W3C//DTD SVG 1.1//EN" 
 "http://www.w3.org/Graphics/SVG/1.1/DTD/svg11.dtd"> 
<svg
  xmlns:svg="http://www.w3.org/2000/svg"
  xmlns="http://www.w3.org/2000/svg"
  xmlns:xlink="http://www.w3.org/1999/xlink"
  version="1.1"
  width="279.4000mm" height="215.9000mm" viewBox="0.0000 0.0000 279.4000 215.9000">
<title>SVG Image created as ImmunoprecipitationDevice_EdenFluidics-Flow_Neg.svg date 2024/08/19 12:30:07 </title>
  <desc>Image generated by PCBNEW </desc>
<g style="fill:#000000; fill-opacity:1.0000;stroke:#000000; stroke-opacity:1.0000;
stroke-linecap:round; stroke-linejoin:round;"
 transform="translate(0 0) scale(1 1)">
<path style="fill:#000000; fill-opacity:1.0000; stroke:none;fill-rule:evenodd;"
d="M 9.4518,23.1964
8.2306,23.1964
8.2306,22.3686
8.3083,22.3686
8.3093,23.0784
8.3168,23.0964
8.3306,23.1102
8.3486,23.1177
8.3681,23.1177
8.3861,23.1102
8.3999,23.0964
8.4074,23.0784
8.4083,23.0686
8.4079,22.7518
8.6014,22.7510
8.6194,22.7435
8.6332,22.7297
8.6407,22.7117
8.6407,22.6922
8.6332,22.6742
8.6194,22.6604
8.6014,22.6529
8.5917,22.6520
8.4078,22.6527
8.4076,22.5624
8.8754,22.5624
8.8768,22.5818
8.8855,22.5993
8.9002,22.6121
8.9187,22.6182
8.9382,22.6169
8.9474,22.6134
9.0135,22.5793
9.0194,22.5769
9.0214,22.5753
9.0223,22.5748
9.0232,22.5738
9.0270,22.5707
9.0752,22.5216
9.0759,23.0192
8.9152,23.0196
8.8972,23.0271
8.8834,23.0409
8.8760,23.0589
8.8760,23.0784
8.8834,23.0964
8.8972,23.1102
8.9152,23.1177
8.9250,23.1186
9.3348,23.1177
9.3528,23.1102
9.3666,23.0964
9.3740,23.0784
9.3740,23.0589
9.3666,23.0409
9.3528,23.0271
9.3348,23.0196
9.3250,23.0186
9.1749,23.0190
9.1741,22.3733
9.1750,22.3686
9.1740,22.3638
9.1740,22.3589
9.1721,22.3543
9.1712,22.3495
9.1684,22.3454
9.1666,22.3409
9.1631,22.3374
9.1603,22.3332
9.1562,22.3305
9.1528,22.3271
9.1482,22.3252
9.1441,22.3224
9.1393,22.3215
9.1348,22.3196
9.1298,22.3196
9.1249,22.3186
9.1201,22.3196
9.1152,22.3196
9.1107,22.3215
9.1058,22.3225
9.1017,22.3252
9.0972,22.3271
9.0937,22.3306
9.0896,22.3333
9.0835,22.3408
9.0834,22.3409
9.0834,22.3409
9.0834,22.3409
9.0224,22.4338
8.9641,22.4933
8.8943,22.5291
8.8816,22.5439
8.8754,22.5624
8.4076,22.5624
8.4075,22.4185
8.7014,22.4177
8.7194,22.4102
8.7332,22.3964
8.7407,22.3784
8.7407,22.3589
8.7332,22.3409
8.7194,22.3271
8.7014,22.3196
8.6917,22.3186
8.3486,22.3196
8.3306,22.3271
8.3168,22.3409
8.3093,22.3589
8.3083,22.3686
8.2306,22.3686
8.2306,22.2409
9.4518,22.2409
Z" /> 
<path style="fill:#000000; fill-opacity:1.0000; stroke:none;fill-rule:evenodd;"
d="M 22.5020,3.9230
21.4268,3.9230
21.4268,3.1330
21.5935,3.1330
21.5962,3.1523
21.6062,3.1691
21.6134,3.1757
21.8466,3.3496
21.6062,3.5309
21.5962,3.5477
21.5935,3.5670
21.5983,3.5859
21.6100,3.6015
21.6268,3.6115
21.6461,3.6142
21.6650,3.6094
21.6734,3.6043
21.9068,3.4283
22.0301,3.7344
22.0437,3.7484
22.0616,3.7561
22.0811,3.7563
22.0993,3.7491
22.1132,3.7354
22.1209,3.7175
22.1211,3.6980
22.1184,3.6886
22.0021,3.3998
22.2960,3.3990
22.3140,3.3916
22.3278,3.3778
22.3353,3.3598
22.3353,3.3402
22.3278,3.3222
22.3140,3.3084
22.2960,3.3010
22.2863,3.3000
22.0025,3.3007
22.1211,3.0020
22.1209,2.9825
22.1132,2.9646
22.0993,2.9509
22.0811,2.9437
22.0616,2.9439
22.0437,2.9516
22.0301,2.9656
22.0256,2.9743
21.9075,3.2715
21.6650,3.0906
21.6461,3.0858
21.6268,3.0885
21.6100,3.0985
21.5983,3.1141
21.5935,3.1330
21.4268,3.1330
21.4268,2.7770
22.5020,2.7770
Z" /> 
<path style="fill:#000000; fill-opacity:1.0000; stroke:none;fill-rule:evenodd;"
d="M 4.7020,6.2230
3.6268,6.2230
3.6268,5.4330
3.7935,5.4330
3.7962,5.4523
3.8062,5.4691
3.8134,5.4757
4.0466,5.6496
3.8062,5.8309
3.7962,5.8477
3.7935,5.8670
3.7983,5.8859
3.8100,5.9015
3.8268,5.9115
3.8461,5.9142
3.8650,5.9094
3.8734,5.9043
4.1068,5.7283
4.2301,6.0344
4.2437,6.0484
4.2616,6.0561
4.2811,6.0563
4.2993,6.0491
4.3132,6.0354
4.3209,6.0175
4.3211,5.9980
4.3184,5.9886
4.2021,5.6998
4.4960,5.6990
4.5141,5.6916
4.5278,5.6778
4.5353,5.6598
4.5353,5.6402
4.5278,5.6222
4.5141,5.6084
4.4960,5.6010
4.4863,5.6000
4.2025,5.6007
4.3211,5.3020
4.3209,5.2825
4.3132,5.2646
4.2993,5.2509
4.2811,5.2437
4.2616,5.2439
4.2437,5.2516
4.2301,5.2656
4.2256,5.2743
4.1075,5.5715
3.8650,5.3906
3.8461,5.3858
3.8268,5.3885
3.8100,5.3985
3.7983,5.4141
3.7935,5.4330
3.6268,5.4330
3.6268,5.0770
4.7020,5.0770
Z" /> 
<path style="fill:#000000; fill-opacity:1.0000; stroke:none;fill-rule:evenodd;"
d="M 38.4520,6.2230
37.3768,6.2230
37.3768,5.4330
37.5435,5.4330
37.5462,5.4523
37.5562,5.4691
37.5634,5.4757
37.7966,5.6496
37.5562,5.8309
37.5462,5.8477
37.5435,5.8670
37.5483,5.8859
37.5600,5.9015
37.5768,5.9115
37.5961,5.9142
37.6150,5.9094
37.6234,5.9043
37.8568,5.7283
37.9801,6.0344
37.9937,6.0484
38.0116,6.0561
38.0311,6.0563
38.0493,6.0491
38.0632,6.0354
38.0709,6.0175
38.0711,5.9980
38.0684,5.9886
37.9521,5.6998
38.2460,5.6990
38.2640,5.6916
38.2778,5.6778
38.2853,5.6598
38.2853,5.6402
38.2778,5.6222
38.2640,5.6084
38.2460,5.6010
38.2363,5.6000
37.9525,5.6007
38.0711,5.3020
38.0709,5.2825
38.0632,5.2646
38.0493,5.2509
38.0311,5.2437
38.0116,5.2439
37.9937,5.2516
37.9801,5.2656
37.9756,5.2743
37.8575,5.5715
37.6150,5.3906
37.5961,5.3858
37.5768,5.3885
37.5600,5.3985
37.5483,5.4141
37.5435,5.4330
37.3768,5.4330
37.3768,5.0770
38.4520,5.0770
Z" /> 
<path style="fill:#000000; fill-opacity:1.0000; stroke:none;fill-rule:evenodd;"
d="M 38.4520,23.1230
37.3768,23.1230
37.3768,22.3330
37.5435,22.3330
37.5462,22.3523
37.5562,22.3691
37.5634,22.3757
37.7966,22.5496
37.5562,22.7309
37.5462,22.7477
37.5435,22.7670
37.5483,22.7859
37.5600,22.8015
37.5768,22.8115
37.5961,22.8142
37.6150,22.8094
37.6234,22.8043
37.8568,22.6283
37.9801,22.9344
37.9937,22.9484
38.0116,22.9561
38.0311,22.9563
38.0493,22.9491
38.0632,22.9354
38.0709,22.9175
38.0711,22.8980
38.0684,22.8886
37.9521,22.5998
38.2460,22.5990
38.2640,22.5916
38.2778,22.5778
38.2853,22.5598
38.2853,22.5402
38.2778,22.5222
38.2640,22.5084
38.2460,22.5010
38.2363,22.5000
37.9525,22.5007
38.0711,22.2020
38.0709,22.1825
38.0632,22.1646
38.0493,22.1509
38.0311,22.1437
38.0116,22.1439
37.9937,22.1516
37.9801,22.1656
37.9756,22.1743
37.8575,22.4715
37.6150,22.2906
37.5961,22.2858
37.5768,22.2885
37.5600,22.2985
37.5483,22.3141
37.5435,22.3330
37.3768,22.3330
37.3768,21.9770
38.4520,21.9770
Z" /> 
<path style="fill:#000000; fill-opacity:1.0000; stroke:none;fill-rule:evenodd;"
d="M 33.6297,22.2006
33.6739,22.2441
33.7000,22.3469
33.7006,22.5617
33.6746,22.6677
33.6318,22.7110
33.5914,22.7316
33.4934,22.7320
33.4536,22.7125
33.4095,22.6689
33.3833,22.5662
33.3827,22.3513
33.4088,22.2453
33.4515,22.2020
33.4919,22.1815
33.5899,22.1810
Z" /> 
<path style="fill:#000000; fill-opacity:1.0000; stroke:none;fill-rule:evenodd;"
d="M 35.2605,22.9593
33.1556,22.9593
33.1556,22.3399
33.2333,22.3399
33.2340,22.5740
33.2338,22.5817
33.2340,22.5826
33.2340,22.5830
33.2342,22.5838
33.2356,22.5914
33.2673,22.7160
33.2673,22.7163
33.2689,22.7221
33.2719,22.7341
33.2722,22.7346
33.2724,22.7352
33.2770,22.7432
33.2814,22.7512
33.2818,22.7516
33.2822,22.7522
33.2886,22.7596
33.3507,22.8209
33.3517,22.8223
33.3567,22.8268
33.3627,22.8327
33.3646,22.8338
33.3663,22.8353
33.3748,22.8403
33.4409,22.8727
33.4463,22.8758
33.4484,22.8764
33.4505,22.8774
33.4579,22.8789
33.4652,22.8809
33.4685,22.8811
33.4697,22.8813
33.4710,22.8813
33.4750,22.8815
33.6069,22.8809
33.6136,22.8813
33.6158,22.8809
33.6181,22.8809
33.6254,22.8789
33.6328,22.8774
33.6359,22.8761
33.6370,22.8758
33.6381,22.8752
33.6419,22.8736
33.7021,22.8429
33.7037,22.8425
33.7093,22.8393
33.7170,22.8353
33.7187,22.8338
33.7207,22.8327
33.7280,22.8262
33.7882,22.7653
33.7883,22.7653
33.7911,22.7624
33.8012,22.7522
33.8015,22.7516
33.8019,22.7512
33.8064,22.7431
33.8110,22.7352
33.8111,22.7346
33.8114,22.7341
33.8144,22.7247
33.8475,22.5898
33.8494,22.5830
33.8494,22.5821
33.8495,22.5817
33.8495,22.5809
33.8500,22.5732
33.8494,22.3391
33.8495,22.3313
33.8494,22.3305
33.8494,22.3301
33.8491,22.3292
33.8478,22.3217
33.8160,22.1970
33.8160,22.1967
33.8145,22.1910
33.8114,22.1790
33.8111,22.1784
33.8110,22.1778
33.8064,22.1699
33.8019,22.1619
33.8015,22.1614
33.8012,22.1609
33.7947,22.1535
33.7472,22.1065
34.0000,22.1065
34.0006,22.6712
34.0002,22.6785
34.0006,22.6807
34.0006,22.6830
34.0026,22.6903
34.0041,22.6977
34.0054,22.7008
34.0057,22.7019
34.0063,22.7030
34.0079,22.7067
34.0386,22.7670
34.0390,22.7686
34.0423,22.7742
34.0462,22.7819
34.0477,22.7836
34.0488,22.7855
34.0553,22.7929
34.0843,22.8212
34.0850,22.8223
34.0894,22.8262
34.0960,22.8327
34.0980,22.8338
34.0997,22.8353
34.1081,22.8403
34.1743,22.8727
34.1796,22.8758
34.1817,22.8764
34.1838,22.8774
34.1912,22.8789
34.1985,22.8809
34.2019,22.8811
34.2030,22.8813
34.2043,22.8813
34.2083,22.8815
34.3403,22.8809
34.3470,22.8813
34.3491,22.8809
34.3515,22.8809
34.3588,22.8789
34.3662,22.8774
34.3692,22.8761
34.3704,22.8758
34.3715,22.8752
34.3752,22.8736
34.4355,22.8429
34.4370,22.8425
34.4426,22.8393
34.4503,22.8353
34.4520,22.8338
34.4540,22.8327
34.4614,22.8262
34.4897,22.7973
34.4908,22.7965
34.4947,22.7922
34.5012,22.7855
34.5023,22.7836
34.5038,22.7819
34.5087,22.7734
34.5412,22.7073
34.5443,22.7019
34.5449,22.6998
34.5459,22.6977
34.5474,22.6903
34.5494,22.6830
34.5496,22.6797
34.5498,22.6785
34.5497,22.6772
34.5500,22.6732
34.5494,22.0967
34.6340,22.0967
34.6340,22.1163
34.6390,22.1352
34.6488,22.1522
34.6627,22.1660
34.6796,22.1758
34.6985,22.1809
34.7083,22.1815
34.8334,22.1813
34.8340,22.8163
34.8390,22.8352
34.8488,22.8522
34.8627,22.8660
34.8796,22.8758
34.8985,22.8809
34.9181,22.8809
34.9370,22.8758
34.9540,22.8660
34.9678,22.8522
34.9776,22.8352
34.9827,22.8163
34.9833,22.8065
34.9828,22.1811
35.1181,22.1809
35.1370,22.1758
35.1540,22.1660
35.1678,22.1522
35.1776,22.1352
35.1827,22.1163
35.1827,22.0967
35.1776,22.0778
35.1678,22.0609
35.1540,22.0470
35.1370,22.0372
35.1181,22.0322
35.1083,22.0315
34.6985,22.0322
34.6796,22.0372
34.6627,22.0470
34.6488,22.0609
34.6390,22.0778
34.6340,22.0967
34.5494,22.0967
34.5443,22.0778
34.5345,22.0609
34.5207,22.0470
34.5037,22.0372
34.4848,22.0322
34.4652,22.0322
34.4463,22.0372
34.4293,22.0470
34.4155,22.0609
34.4057,22.0778
34.4006,22.0967
34.4000,22.1065
34.4006,22.6546
34.3809,22.6947
34.3648,22.7112
34.3248,22.7316
34.2268,22.7320
34.1868,22.7124
34.1703,22.6963
34.1500,22.6564
34.1494,22.0967
34.1443,22.0778
34.1345,22.0609
34.1207,22.0470
34.1037,22.0372
34.0848,22.0322
34.0652,22.0322
34.0463,22.0372
34.0293,22.0470
34.0155,22.0609
34.0057,22.0778
34.0006,22.0967
34.0000,22.1065
33.7472,22.1065
33.7326,22.0922
33.7317,22.0907
33.7267,22.0863
33.7207,22.0804
33.7187,22.0792
33.7170,22.0777
33.7085,22.0728
33.6424,22.0403
33.6370,22.0372
33.6349,22.0367
33.6328,22.0356
33.6254,22.0341
33.6181,22.0322
33.6148,22.0320
33.6136,22.0317
33.6124,22.0318
33.6083,22.0315
33.4764,22.0321
33.4697,22.0317
33.4675,22.0322
33.4652,22.0322
33.4579,22.0341
33.4505,22.0356
33.4474,22.0369
33.4463,22.0372
33.4452,22.0379
33.4415,22.0395
33.3812,22.0702
33.3796,22.0706
33.3740,22.0738
33.3663,22.0777
33.3646,22.0792
33.3627,22.0804
33.3553,22.0868
33.2952,22.1477
33.2950,22.1478
33.2923,22.1506
33.2822,22.1609
33.2818,22.1614
33.2814,22.1619
33.2770,22.1699
33.2724,22.1778
33.2722,22.1784
33.2719,22.1790
33.2689,22.1883
33.2358,22.3233
33.2340,22.3301
33.2339,22.3309
33.2338,22.3313
33.2338,22.3322
33.2333,22.3399
33.1556,22.3399
33.1556,21.9538
35.2605,21.9538
Z" /> 
<path style="fill:#000000; fill-opacity:1.0000; stroke:none;fill-rule:evenodd;"
d="M 26.2748,2.8337
26.3399,2.8492
26.4027,2.8720
26.4625,2.9020
26.5184,2.9388
26.5696,2.9818
26.6155,3.0304
26.6554,3.0840
26.6888,3.1419
26.7153,3.2033
26.7345,3.2674
26.7461,3.3332
26.7500,3.4000
26.7461,3.4668
26.7345,3.5326
26.7153,3.5967
26.6888,3.6581
26.6554,3.7160
26.6155,3.7696
26.5696,3.8182
26.5184,3.8612
26.4625,3.8980
26.4027,3.9280
26.3399,3.9508
26.2748,3.9663
26.2084,3.9740
26.1416,3.9740
26.0752,3.9663
26.0101,3.9508
25.9473,3.9280
25.8875,3.8980
25.8316,3.8612
25.7804,3.8182
25.7345,3.7696
25.7079,3.7338
25.9119,3.7338
25.9293,3.7480
25.9790,3.7782
26.0323,3.8014
26.0883,3.8171
26.1259,3.8222
26.1256,3.5196
25.9119,3.7338
25.7079,3.7338
25.6946,3.7160
25.6612,3.6581
25.6347,3.5967
25.6155,3.5326
25.6039,3.4668
25.6029,3.4499
25.7524,3.4499
25.7530,3.4580
25.7648,3.5149
25.7843,3.5697
25.8110,3.6213
25.8413,3.6643
25.9858,3.5195
26.2246,3.5195
26.2249,3.8221
26.2617,3.8171
26.3177,3.8014
26.3710,3.7782
26.4207,3.7480
26.4389,3.7332
26.2246,3.5195
25.9858,3.5195
26.0555,3.4496
25.7524,3.4499
25.6029,3.4499
25.6029,3.4494
26.2946,3.4494
26.5092,3.6635
26.5390,3.6213
26.5657,3.5697
26.5852,3.5149
26.5970,3.4580
26.5976,3.4491
26.2946,3.4494
25.6029,3.4494
25.6000,3.4000
25.6029,3.3509
25.7524,3.3509
26.0554,3.3506
26.0551,3.3504
26.2945,3.3504
26.5976,3.3501
26.5970,3.3420
26.5852,3.2851
26.5657,3.2303
26.5390,3.1787
26.5087,3.1357
26.2945,3.3504
26.0551,3.3504
25.8408,3.1365
25.8110,3.1787
25.7843,3.2303
25.7648,3.2851
25.7530,3.3420
25.7524,3.3509
25.6029,3.3509
25.6039,3.3332
25.6155,3.2674
25.6347,3.2033
25.6612,3.1419
25.6946,3.0840
25.7074,3.0668
25.9111,3.0668
26.1254,3.2805
26.1251,2.9779
26.0883,2.9829
26.0323,2.9986
25.9790,3.0218
25.9293,3.0520
25.9111,3.0668
25.7074,3.0668
25.7345,3.0304
25.7804,2.9818
25.7852,2.9778
26.2241,2.9778
26.2244,3.2804
26.4381,3.0662
26.4207,3.0520
26.3710,3.0218
26.3177,2.9986
26.2617,2.9829
26.2241,2.9778
25.7852,2.9778
25.8316,2.9388
25.8875,2.9020
25.9473,2.8720
26.0101,2.8492
26.0752,2.8337
26.1416,2.8260
26.2084,2.8260
Z" /> 
<path style="fill:#000000; fill-opacity:1.0000; stroke:none;fill-rule:evenodd;"
d="M 37.4000,13.9000
37.9500,13.9000
37.7500,13.6000
37.6000,13.6000
Z" /> 
<path style="fill:#000000; fill-opacity:1.0000; stroke:none;fill-rule:evenodd;"
d="M 37.9500,16.4000
37.4000,16.4000
37.6000,16.7000
37.7500,16.7000
Z" /> 
<path style="fill:#000000; fill-opacity:1.0000; stroke:none;fill-rule:evenodd;"
d="M 28.1000,7.0500
28.1000,6.9000
28.2500,6.9000
28.2500,7.0500
Z" /> 
<path style="fill:#000000; fill-opacity:1.0000; stroke:none;fill-rule:evenodd;"
d="M 28.1000,7.4000
28.1000,7.2500
28.2500,7.2500
28.2500,7.4000
Z" /> 
<path style="fill:#000000; fill-opacity:1.0000; stroke:none;fill-rule:evenodd;"
d="M 36.1000,21.3000
36.1000,21.1500
36.2500,21.1500
36.2500,21.3000
Z" /> 
<path style="fill:#000000; fill-opacity:1.0000; stroke:none;fill-rule:evenodd;"
d="M 36.1000,21.6500
36.1000,21.5000
36.2500,21.5000
36.2500,21.6500
Z" /> 
<path style="fill:#000000; fill-opacity:1.0000; stroke:none;fill-rule:evenodd;"
d="M 36.2748,2.8337
36.3399,2.8492
36.4027,2.8720
36.4625,2.9020
36.5184,2.9388
36.5696,2.9818
36.6155,3.0304
36.6554,3.0840
36.6888,3.1419
36.7153,3.2033
36.7345,3.2674
36.7461,3.3332
36.7500,3.4000
36.7461,3.4668
36.7345,3.5326
36.7153,3.5967
36.6888,3.6581
36.6554,3.7160
36.6155,3.7696
36.5696,3.8182
36.5184,3.8612
36.4625,3.8980
36.4027,3.9280
36.3399,3.9508
36.2748,3.9663
36.2084,3.9740
36.1416,3.9740
36.0752,3.9663
36.0101,3.9508
35.9473,3.9280
35.8875,3.8980
35.8316,3.8612
35.7804,3.8182
35.7345,3.7696
35.7079,3.7338
35.9119,3.7338
35.9293,3.7480
35.9790,3.7782
36.0323,3.8014
36.0883,3.8171
36.1259,3.8222
36.1256,3.5196
35.9119,3.7338
35.7079,3.7338
35.6946,3.7160
35.6612,3.6581
35.6347,3.5967
35.6155,3.5326
35.6039,3.4668
35.6029,3.4499
35.7524,3.4499
35.7530,3.4580
35.7648,3.5149
35.7843,3.5697
35.8110,3.6213
35.8413,3.6643
35.9858,3.5195
36.2246,3.5195
36.2249,3.8221
36.2617,3.8171
36.3177,3.8014
36.3710,3.7782
36.4207,3.7480
36.4389,3.7332
36.2246,3.5195
35.9858,3.5195
36.0555,3.4496
35.7524,3.4499
35.6029,3.4499
35.6029,3.4494
36.2946,3.4494
36.5092,3.6635
36.5390,3.6213
36.5657,3.5697
36.5852,3.5149
36.5970,3.4580
36.5976,3.4491
36.2946,3.4494
35.6029,3.4494
35.6000,3.4000
35.6029,3.3509
35.7524,3.3509
36.0554,3.3506
36.0551,3.3504
36.2945,3.3504
36.5976,3.3501
36.5970,3.3420
36.5852,3.2851
36.5657,3.2303
36.5390,3.1787
36.5087,3.1357
36.2945,3.3504
36.0551,3.3504
35.8408,3.1365
35.8110,3.1787
35.7843,3.2303
35.7648,3.2851
35.7530,3.3420
35.7524,3.3509
35.6029,3.3509
35.6039,3.3332
35.6155,3.2674
35.6347,3.2033
35.6612,3.1419
35.6946,3.0840
35.7074,3.0668
35.9111,3.0668
36.1254,3.2805
36.1251,2.9779
36.0883,2.9829
36.0323,2.9986
35.9790,3.0218
35.9293,3.0520
35.9111,3.0668
35.7074,3.0668
35.7345,3.0304
35.7804,2.9818
35.7852,2.9778
36.2241,2.9778
36.2244,3.2804
36.4381,3.0662
36.4207,3.0520
36.3710,3.0218
36.3177,2.9986
36.2617,2.9829
36.2241,2.9778
35.7852,2.9778
35.8316,2.9388
35.8875,2.9020
35.9473,2.8720
36.0101,2.8492
36.0752,2.8337
36.1416,2.8260
36.2084,2.8260
Z" /> 
<path style="fill:#000000; fill-opacity:1.0000; stroke:none;fill-rule:evenodd;"
d="M 36.0752,22.9663
36.0101,22.9508
35.9473,22.9280
35.8875,22.8980
35.8316,22.8612
35.7804,22.8182
35.7345,22.7696
35.6946,22.7160
35.6612,22.6581
35.6347,22.5967
35.6155,22.5326
35.6039,22.4668
35.6000,22.4000
35.6039,22.3332
35.6155,22.2674
35.6347,22.2033
35.6612,22.1419
35.6946,22.0840
35.7345,22.0304
35.7804,21.9818
35.8316,21.9388
35.8875,21.9020
35.9473,21.8720
36.0101,21.8492
36.0752,21.8337
36.1416,21.8260
36.2084,21.8260
36.2748,21.8337
36.3399,21.8492
36.4027,21.8720
36.4625,21.9020
36.5184,21.9388
36.5696,21.9818
36.6155,22.0304
36.6421,22.0662
36.4381,22.0662
36.4207,22.0520
36.3710,22.0218
36.3177,21.9986
36.2617,21.9829
36.2241,21.9778
36.2244,22.2804
36.4381,22.0662
36.6421,22.0662
36.6554,22.0840
36.6888,22.1419
36.7153,22.2033
36.7345,22.2674
36.7461,22.3332
36.7471,22.3501
36.5976,22.3501
36.5970,22.3420
36.5852,22.2851
36.5657,22.2303
36.5390,22.1787
36.5087,22.1357
36.3642,22.2805
36.1254,22.2805
36.1251,21.9779
36.0883,21.9829
36.0323,21.9986
35.9790,22.0218
35.9293,22.0520
35.9111,22.0668
36.1254,22.2805
36.3642,22.2805
36.2945,22.3504
36.5976,22.3501
36.7471,22.3501
36.7471,22.3506
36.0554,22.3506
35.8408,22.1365
35.8110,22.1787
35.7843,22.2303
35.7648,22.2851
35.7530,22.3420
35.7524,22.3509
36.0554,22.3506
36.7471,22.3506
36.7500,22.4000
36.7471,22.4491
36.5976,22.4491
36.2946,22.4494
36.2949,22.4496
36.0555,22.4496
35.7524,22.4499
35.7530,22.4580
35.7648,22.5149
35.7843,22.5697
35.8110,22.6213
35.8413,22.6643
36.0555,22.4496
36.2949,22.4496
36.5092,22.6635
36.5390,22.6213
36.5657,22.5697
36.5852,22.5149
36.5970,22.4580
36.5976,22.4491
36.7471,22.4491
36.7461,22.4668
36.7345,22.5326
36.7153,22.5967
36.6888,22.6581
36.6554,22.7160
36.6426,22.7332
36.4389,22.7332
36.2246,22.5195
36.2249,22.8221
36.2617,22.8171
36.3177,22.8014
36.3710,22.7782
36.4207,22.7480
36.4389,22.7332
36.6426,22.7332
36.6155,22.7696
36.5696,22.8182
36.5648,22.8222
36.1259,22.8222
36.1256,22.5196
35.9119,22.7338
35.9293,22.7480
35.9790,22.7782
36.0323,22.8014
36.0883,22.8171
36.1259,22.8222
36.5648,22.8222
36.5184,22.8612
36.4625,22.8980
36.4027,22.9280
36.3399,22.9508
36.2748,22.9663
36.2084,22.9740
36.1416,22.9740
Z" /> 
<path style="fill:#000000; fill-opacity:1.0000; stroke:none;fill-rule:evenodd;"
d="M 30.2748,2.8337
30.3399,2.8492
30.4027,2.8720
30.4625,2.9020
30.5184,2.9388
30.5696,2.9818
30.6155,3.0304
30.6554,3.0840
30.6888,3.1419
30.7153,3.2033
30.7345,3.2674
30.7461,3.3332
30.7500,3.4000
30.7461,3.4668
30.7345,3.5326
30.7153,3.5967
30.6888,3.6581
30.6554,3.7160
30.6155,3.7696
30.5696,3.8182
30.5184,3.8612
30.4625,3.8980
30.4027,3.9280
30.3399,3.9508
30.2748,3.9663
30.2084,3.9740
30.1416,3.9740
30.0752,3.9663
30.0101,3.9508
29.9473,3.9280
29.8875,3.8980
29.8316,3.8612
29.7804,3.8182
29.7345,3.7696
29.7079,3.7338
29.9119,3.7338
29.9293,3.7480
29.9790,3.7782
30.0323,3.8014
30.0883,3.8171
30.1259,3.8222
30.1256,3.5196
29.9119,3.7338
29.7079,3.7338
29.6946,3.7160
29.6612,3.6581
29.6347,3.5967
29.6155,3.5326
29.6039,3.4668
29.6029,3.4499
29.7524,3.4499
29.7530,3.4580
29.7648,3.5149
29.7843,3.5697
29.8110,3.6213
29.8413,3.6643
29.9858,3.5195
30.2246,3.5195
30.2249,3.8221
30.2617,3.8171
30.3177,3.8014
30.3710,3.7782
30.4207,3.7480
30.4389,3.7332
30.2246,3.5195
29.9858,3.5195
30.0555,3.4496
29.7524,3.4499
29.6029,3.4499
29.6029,3.4494
30.2946,3.4494
30.5092,3.6635
30.5390,3.6213
30.5657,3.5697
30.5852,3.5149
30.5970,3.4580
30.5976,3.4491
30.2946,3.4494
29.6029,3.4494
29.6000,3.4000
29.6029,3.3509
29.7524,3.3509
30.0554,3.3506
30.0551,3.3504
30.2945,3.3504
30.5976,3.3501
30.5970,3.3420
30.5852,3.2851
30.5657,3.2303
30.5390,3.1787
30.5087,3.1357
30.2945,3.3504
30.0551,3.3504
29.8408,3.1365
29.8110,3.1787
29.7843,3.2303
29.7648,3.2851
29.7530,3.3420
29.7524,3.3509
29.6029,3.3509
29.6039,3.3332
29.6155,3.2674
29.6347,3.2033
29.6612,3.1419
29.6946,3.0840
29.7074,3.0668
29.9111,3.0668
30.1254,3.2805
30.1251,2.9779
30.0883,2.9829
30.0323,2.9986
29.9790,3.0218
29.9293,3.0520
29.9111,3.0668
29.7074,3.0668
29.7345,3.0304
29.7804,2.9818
29.7852,2.9778
30.2241,2.9778
30.2244,3.2804
30.4381,3.0662
30.4207,3.0520
30.3710,3.0218
30.3177,2.9986
30.2617,2.9829
30.2241,2.9778
29.7852,2.9778
29.8316,2.9388
29.8875,2.9020
29.9473,2.8720
30.0101,2.8492
30.0752,2.8337
30.1416,2.8260
30.2084,2.8260
Z" /> 
<path style="fill:#000000; fill-opacity:1.0000; stroke:none;fill-rule:evenodd;"
d="M 24.1000,8.0500
24.1000,7.9000
24.2500,7.9000
24.2500,8.0500
Z" /> 
<path style="fill:#000000; fill-opacity:1.0000; stroke:none;fill-rule:evenodd;"
d="M 24.1000,8.4000
24.1000,8.2500
24.2500,8.2500
24.2500,8.4000
Z" /> 
<path style="fill:#000000; fill-opacity:1.0000; stroke:none;fill-rule:evenodd;"
d="M 34.1000,5.5500
34.1000,5.4000
34.2500,5.4000
34.2500,5.5500
Z" /> 
<path style="fill:#000000; fill-opacity:1.0000; stroke:none;fill-rule:evenodd;"
d="M 34.1000,5.9000
34.1000,5.7500
34.2500,5.7500
34.2500,5.9000
Z" /> 
<path style="fill:#000000; fill-opacity:1.0000; stroke:none;fill-rule:evenodd;"
d="M 36.1000,5.0500
36.1000,4.9000
36.2500,4.9000
36.2500,5.0500
Z" /> 
<path style="fill:#000000; fill-opacity:1.0000; stroke:none;fill-rule:evenodd;"
d="M 36.1000,5.4000
36.1000,5.2500
36.2500,5.2500
36.2500,5.4000
Z" /> 
<path style="fill:#000000; fill-opacity:1.0000; stroke:none;fill-rule:evenodd;"
d="M 24.2748,2.8337
24.3399,2.8492
24.4027,2.8720
24.4625,2.9020
24.5184,2.9388
24.5696,2.9818
24.6155,3.0304
24.6554,3.0840
24.6888,3.1419
24.7153,3.2033
24.7345,3.2674
24.7461,3.3332
24.7500,3.4000
24.7461,3.4668
24.7345,3.5326
24.7153,3.5967
24.6888,3.6581
24.6554,3.7160
24.6155,3.7696
24.5696,3.8182
24.5184,3.8612
24.4625,3.8980
24.4027,3.9280
24.3399,3.9508
24.2748,3.9663
24.2084,3.9740
24.1416,3.9740
24.0752,3.9663
24.0101,3.9508
23.9473,3.9280
23.8875,3.8980
23.8316,3.8612
23.7804,3.8182
23.7345,3.7696
23.7079,3.7338
23.9119,3.7338
23.9293,3.7480
23.9790,3.7782
24.0323,3.8014
24.0883,3.8171
24.1259,3.8222
24.1256,3.5196
23.9119,3.7338
23.7079,3.7338
23.6946,3.7160
23.6612,3.6581
23.6347,3.5967
23.6155,3.5326
23.6039,3.4668
23.6029,3.4499
23.7524,3.4499
23.7530,3.4580
23.7648,3.5149
23.7843,3.5697
23.8110,3.6213
23.8413,3.6643
23.9858,3.5195
24.2246,3.5195
24.2249,3.8221
24.2617,3.8171
24.3177,3.8014
24.3710,3.7782
24.4207,3.7480
24.4389,3.7332
24.2246,3.5195
23.9858,3.5195
24.0555,3.4496
23.7524,3.4499
23.6029,3.4499
23.6029,3.4494
24.2946,3.4494
24.5092,3.6635
24.5390,3.6213
24.5657,3.5697
24.5852,3.5149
24.5970,3.4580
24.5976,3.4491
24.2946,3.4494
23.6029,3.4494
23.6000,3.4000
23.6029,3.3509
23.7524,3.3509
24.0554,3.3506
24.0551,3.3504
24.2945,3.3504
24.5976,3.3501
24.5970,3.3420
24.5852,3.2851
24.5657,3.2303
24.5390,3.1787
24.5087,3.1357
24.2945,3.3504
24.0551,3.3504
23.8408,3.1365
23.8110,3.1787
23.7843,3.2303
23.7648,3.2851
23.7530,3.3420
23.7524,3.3509
23.6029,3.3509
23.6039,3.3332
23.6155,3.2674
23.6347,3.2033
23.6612,3.1419
23.6946,3.0840
23.7074,3.0668
23.9111,3.0668
24.1254,3.2805
24.1251,2.9779
24.0883,2.9829
24.0323,2.9986
23.9790,3.0218
23.9293,3.0520
23.9111,3.0668
23.7074,3.0668
23.7345,3.0304
23.7804,2.9818
23.7852,2.9778
24.2241,2.9778
24.2244,3.2804
24.4381,3.0662
24.4207,3.0520
24.3710,3.0218
24.3177,2.9986
24.2617,2.9829
24.2241,2.9778
23.7852,2.9778
23.8316,2.9388
23.8875,2.9020
23.9473,2.8720
24.0101,2.8492
24.0752,2.8337
24.1416,2.8260
24.2084,2.8260
Z" /> 
<path style="fill:#000000; fill-opacity:1.0000; stroke:none;fill-rule:evenodd;"
d="M 36.1000,8.9000
36.1000,8.7500
36.2500,8.7500
36.2500,8.9000
Z" /> 
<path style="fill:#000000; fill-opacity:1.0000; stroke:none;fill-rule:evenodd;"
d="M 36.1000,9.2500
36.1000,9.1000
36.2500,9.1000
36.2500,9.2500
Z" /> 
<path style="fill:#000000; fill-opacity:1.0000; stroke:none;fill-rule:evenodd;"
d="M 32.1000,6.0500
32.1000,5.9000
32.2500,5.9000
32.2500,6.0500
Z" /> 
<path style="fill:#000000; fill-opacity:1.0000; stroke:none;fill-rule:evenodd;"
d="M 32.1000,6.4000
32.1000,6.2500
32.2500,6.2500
32.2500,6.4000
Z" /> 
<path style="fill:#000000; fill-opacity:1.0000; stroke:none;fill-rule:evenodd;"
d="M 34.2748,2.8337
34.3399,2.8492
34.4027,2.8720
34.4625,2.9020
34.5184,2.9388
34.5696,2.9818
34.6155,3.0304
34.6554,3.0840
34.6888,3.1419
34.7153,3.2033
34.7345,3.2674
34.7461,3.3332
34.7500,3.4000
34.7461,3.4668
34.7345,3.5326
34.7153,3.5967
34.6888,3.6581
34.6554,3.7160
34.6155,3.7696
34.5696,3.8182
34.5184,3.8612
34.4625,3.8980
34.4027,3.9280
34.3399,3.9508
34.2748,3.9663
34.2084,3.9740
34.1416,3.9740
34.0752,3.9663
34.0101,3.9508
33.9473,3.9280
33.8875,3.8980
33.8316,3.8612
33.7804,3.8182
33.7345,3.7696
33.7079,3.7338
33.9119,3.7338
33.9293,3.7480
33.9790,3.7782
34.0323,3.8014
34.0883,3.8171
34.1259,3.8222
34.1256,3.5196
33.9119,3.7338
33.7079,3.7338
33.6946,3.7160
33.6612,3.6581
33.6347,3.5967
33.6155,3.5326
33.6039,3.4668
33.6029,3.4499
33.7524,3.4499
33.7530,3.4580
33.7648,3.5149
33.7843,3.5697
33.8110,3.6213
33.8413,3.6643
33.9858,3.5195
34.2246,3.5195
34.2249,3.8221
34.2617,3.8171
34.3177,3.8014
34.3710,3.7782
34.4207,3.7480
34.4389,3.7332
34.2246,3.5195
33.9858,3.5195
34.0555,3.4496
33.7524,3.4499
33.6029,3.4499
33.6029,3.4494
34.2946,3.4494
34.5092,3.6635
34.5390,3.6213
34.5657,3.5697
34.5852,3.5149
34.5970,3.4580
34.5976,3.4491
34.2946,3.4494
33.6029,3.4494
33.6000,3.4000
33.6029,3.3509
33.7524,3.3509
34.0554,3.3506
34.0551,3.3504
34.2945,3.3504
34.5976,3.3501
34.5970,3.3420
34.5852,3.2851
34.5657,3.2303
34.5390,3.1787
34.5087,3.1357
34.2945,3.3504
34.0551,3.3504
33.8408,3.1365
33.8110,3.1787
33.7843,3.2303
33.7648,3.2851
33.7530,3.3420
33.7524,3.3509
33.6029,3.3509
33.6039,3.3332
33.6155,3.2674
33.6347,3.2033
33.6612,3.1419
33.6946,3.0840
33.7074,3.0668
33.9111,3.0668
34.1254,3.2805
34.1251,2.9779
34.0883,2.9829
34.0323,2.9986
33.9790,3.0218
33.9293,3.0520
33.9111,3.0668
33.7074,3.0668
33.7345,3.0304
33.7804,2.9818
33.7852,2.9778
34.2241,2.9778
34.2244,3.2804
34.4381,3.0662
34.4207,3.0520
34.3710,3.0218
34.3177,2.9986
34.2617,2.9829
34.2241,2.9778
33.7852,2.9778
33.8316,2.9388
33.8875,2.9020
33.9473,2.8720
34.0101,2.8492
34.0752,2.8337
34.1416,2.8260
34.2084,2.8260
Z" /> 
<path style="fill:#000000; fill-opacity:1.0000; stroke:none;fill-rule:evenodd;"
d="M 28.2748,2.8337
28.3399,2.8492
28.4027,2.8720
28.4625,2.9020
28.5184,2.9388
28.5696,2.9818
28.6155,3.0304
28.6554,3.0840
28.6888,3.1419
28.7153,3.2033
28.7345,3.2674
28.7461,3.3332
28.7500,3.4000
28.7461,3.4668
28.7345,3.5326
28.7153,3.5967
28.6888,3.6581
28.6554,3.7160
28.6155,3.7696
28.5696,3.8182
28.5184,3.8612
28.4625,3.8980
28.4027,3.9280
28.3399,3.9508
28.2748,3.9663
28.2084,3.9740
28.1416,3.9740
28.0752,3.9663
28.0101,3.9508
27.9473,3.9280
27.8875,3.8980
27.8316,3.8612
27.7804,3.8182
27.7345,3.7696
27.7079,3.7338
27.9119,3.7338
27.9293,3.7480
27.9790,3.7782
28.0323,3.8014
28.0883,3.8171
28.1259,3.8222
28.1256,3.5196
27.9119,3.7338
27.7079,3.7338
27.6946,3.7160
27.6612,3.6581
27.6347,3.5967
27.6155,3.5326
27.6039,3.4668
27.6029,3.4499
27.7524,3.4499
27.7530,3.4580
27.7648,3.5149
27.7843,3.5697
27.8110,3.6213
27.8413,3.6643
27.9858,3.5195
28.2246,3.5195
28.2249,3.8221
28.2617,3.8171
28.3177,3.8014
28.3710,3.7782
28.4207,3.7480
28.4389,3.7332
28.2246,3.5195
27.9858,3.5195
28.0555,3.4496
27.7524,3.4499
27.6029,3.4499
27.6029,3.4494
28.2946,3.4494
28.5092,3.6635
28.5390,3.6213
28.5657,3.5697
28.5852,3.5149
28.5970,3.4580
28.5976,3.4491
28.2946,3.4494
27.6029,3.4494
27.6000,3.4000
27.6029,3.3509
27.7524,3.3509
28.0554,3.3506
28.0551,3.3504
28.2945,3.3504
28.5976,3.3501
28.5970,3.3420
28.5852,3.2851
28.5657,3.2303
28.5390,3.1787
28.5087,3.1357
28.2945,3.3504
28.0551,3.3504
27.8408,3.1365
27.8110,3.1787
27.7843,3.2303
27.7648,3.2851
27.7530,3.3420
27.7524,3.3509
27.6029,3.3509
27.6039,3.3332
27.6155,3.2674
27.6347,3.2033
27.6612,3.1419
27.6946,3.0840
27.7074,3.0668
27.9111,3.0668
28.1254,3.2805
28.1251,2.9779
28.0883,2.9829
28.0323,2.9986
27.9790,3.0218
27.9293,3.0520
27.9111,3.0668
27.7074,3.0668
27.7345,3.0304
27.7804,2.9818
27.7852,2.9778
28.2241,2.9778
28.2244,3.2804
28.4381,3.0662
28.4207,3.0520
28.3710,3.0218
28.3177,2.9986
28.2617,2.9829
28.2241,2.9778
27.7852,2.9778
27.8316,2.9388
27.8875,2.9020
27.9473,2.8720
28.0101,2.8492
28.0752,2.8337
28.1416,2.8260
28.2084,2.8260
Z" /> 
<path style="fill:#000000; fill-opacity:1.0000; stroke:none;fill-rule:evenodd;"
d="M 26.1000,7.5500
26.1000,7.4000
26.2500,7.4000
26.2500,7.5500
Z" /> 
<path style="fill:#000000; fill-opacity:1.0000; stroke:none;fill-rule:evenodd;"
d="M 26.1000,7.9000
26.1000,7.7500
26.2500,7.7500
26.2500,7.9000
Z" /> 
<path style="fill:#000000; fill-opacity:1.0000; stroke:none;fill-rule:evenodd;"
d="M 30.1000,6.5500
30.1000,6.4000
30.2500,6.4000
30.2500,6.5500
Z" /> 
<path style="fill:#000000; fill-opacity:1.0000; stroke:none;fill-rule:evenodd;"
d="M 30.1000,6.9000
30.1000,6.7500
30.2500,6.7500
30.2500,6.9000
Z" /> 
<path style="fill:#000000; fill-opacity:1.0000; stroke:none;fill-rule:evenodd;"
d="M 32.2748,2.8337
32.3399,2.8492
32.4027,2.8720
32.4625,2.9020
32.5184,2.9388
32.5696,2.9818
32.6155,3.0304
32.6554,3.0840
32.6888,3.1419
32.7153,3.2033
32.7345,3.2674
32.7461,3.3332
32.7500,3.4000
32.7461,3.4668
32.7345,3.5326
32.7153,3.5967
32.6888,3.6581
32.6554,3.7160
32.6155,3.7696
32.5696,3.8182
32.5184,3.8612
32.4625,3.8980
32.4027,3.9280
32.3399,3.9508
32.2748,3.9663
32.2084,3.9740
32.1416,3.9740
32.0752,3.9663
32.0101,3.9508
31.9473,3.9280
31.8875,3.8980
31.8316,3.8612
31.7804,3.8182
31.7345,3.7696
31.7079,3.7338
31.9119,3.7338
31.9293,3.7480
31.9790,3.7782
32.0323,3.8014
32.0883,3.8171
32.1259,3.8222
32.1256,3.5196
31.9119,3.7338
31.7079,3.7338
31.6946,3.7160
31.6612,3.6581
31.6347,3.5967
31.6155,3.5326
31.6039,3.4668
31.6029,3.4499
31.7524,3.4499
31.7530,3.4580
31.7648,3.5149
31.7843,3.5697
31.8110,3.6213
31.8413,3.6643
31.9858,3.5195
32.2246,3.5195
32.2249,3.8221
32.2617,3.8171
32.3177,3.8014
32.3710,3.7782
32.4207,3.7480
32.4389,3.7332
32.2246,3.5195
31.9858,3.5195
32.0555,3.4496
31.7524,3.4499
31.6029,3.4499
31.6029,3.4494
32.2946,3.4494
32.5092,3.6635
32.5390,3.6213
32.5657,3.5697
32.5852,3.5149
32.5970,3.4580
32.5976,3.4491
32.2946,3.4494
31.6029,3.4494
31.6000,3.4000
31.6029,3.3509
31.7524,3.3509
32.0554,3.3506
32.0551,3.3504
32.2945,3.3504
32.5976,3.3501
32.5970,3.3420
32.5852,3.2851
32.5657,3.2303
32.5390,3.1787
32.5087,3.1357
32.2945,3.3504
32.0551,3.3504
31.8408,3.1365
31.8110,3.1787
31.7843,3.2303
31.7648,3.2851
31.7530,3.3420
31.7524,3.3509
31.6029,3.3509
31.6039,3.3332
31.6155,3.2674
31.6347,3.2033
31.6612,3.1419
31.6946,3.0840
31.7074,3.0668
31.9111,3.0668
32.1254,3.2805
32.1251,2.9779
32.0883,2.9829
32.0323,2.9986
31.9790,3.0218
31.9293,3.0520
31.9111,3.0668
31.7074,3.0668
31.7345,3.0304
31.7804,2.9818
31.7852,2.9778
32.2241,2.9778
32.2244,3.2804
32.4381,3.0662
32.4207,3.0520
32.3710,3.0218
32.3177,2.9986
32.2617,2.9829
32.2241,2.9778
31.7852,2.9778
31.8316,2.9388
31.8875,2.9020
31.9473,2.8720
32.0101,2.8492
32.0752,2.8337
32.1416,2.8260
32.2084,2.8260
Z" /> 
</g>
<g style="fill:none; 
stroke:#000000; stroke-width:0.1500; stroke-opacity:1; 
stroke-linecap:round; stroke-linejoin:round;">
<path d="M36.1750 20.7500
L36.1750 20.9000
" />
<path d="M3.7500 18.2750
L36.1000 18.2750
" />
<path d="M3.6750 16.8500
L3.6750 17.0000
" />
<path d="M36.1750 18.9500
L36.1750 19.1000
" />
<path d="M3.7500 14.0750
L36.1000 14.0750
" />
<path d="M36.1750 15.3500
L36.1750 15.5000
" />
<path d="M32.1750 5.9750
L32.1750 3.4000
" />
<path d="M3.7500 17.0750
L36.1000 17.0750
" />
<path d="M36.1750 5.3250
L36.1750 8.6500
" />
<path d="M36.1750 12.3500
L36.1750 12.5000
" />
<path d="M26.1750 7.8250
L26.1750 8.6500
" />
<path d="M36.2531 20.8000
L36.1640 20.7110
" />
<path d="M36.1750 19.5500
L36.1750 19.7000
" />
<path d="M36.1000 11.9750
L3.7500 11.9750
" />
<path d="M36.1000 18.5750
L3.7500 18.5750
" />
<path d="M36.1750 14.7500
L36.1750 14.9000
" />
<path d="M36.1000 19.7750
L3.7500 19.7750
" />
<path d="M34.1750 5.8250
L34.1750 8.6500
" />
<path d="M37.6750 20.8000
L36.2531 20.8000
" />
<path d="M3.7500 9.8750
L36.1000 9.8750
" />
<path d="M36.1750 8.8250
L36.1750 8.6500
" />
<path d="M3.7500 12.8750
L36.1000 12.8750
" />
<path d="M36.1750 9.5000
L37.6750 9.5000
" />
<path d="M36.1750 13.5500
L36.1750 13.7000
" />
<path d="M28.1750 7.3250
L28.1750 8.6500
" />
<path d="M3.6750 11.4500
L3.6750 11.6000
" />
<path d="M28.1750 8.6500
L26.1750 8.6500
" />
<path d="M36.1750 10.5500
L36.1750 10.7000
" />
<path d="M3.6750 18.6500
L3.6750 18.8000
" />
<path d="M36.1000 12.5750
L3.7500 12.5750
" />
<path d="M36.1000 14.9750
L3.7500 14.9750
" />
<path d="M36.1750 11.7500
L36.1750 11.9000
" />
<path d="M26.1750 8.6500
L24.1750 8.6500
" />
<path d="M3.6750 12.0500
L3.6750 12.2000
" />
<path d="M36.1750 17.1500
L36.1750 17.3000
" />
<path d="M3.7500 18.8750
L36.1000 18.8750
" />
<path d="M36.1000 20.3750
L3.7500 20.3750
" />
<path d="M34.1750 3.4000
L34.1750 5.4750
" />
<path d="M32.1750 8.6500
L30.1750 8.6500
" />
<path d="M36.1750 12.9500
L36.1750 13.1000
" />
<path d="M3.6750 19.8500
L3.6750 20.0000
" />
<path d="M3.7500 19.4750
L36.1000 19.4750
" />
<path d="M36.1750 8.6500
L34.1750 8.6500
" />
<path d="M36.1000 13.1750
L3.7500 13.1750
" />
<path d="M36.1750 18.3500
L36.1750 18.5000
" />
<path d="M3.7500 20.0750
L36.1000 20.0750
" />
<path d="M36.1750 14.1500
L36.1750 14.3000
" />
<path d="M3.7500 12.2750
L36.1000 12.2750
" />
<path d="M3.7500 11.6750
L36.1000 11.6750
" />
<path d="M36.1750 21.5750
L36.1750 22.4000
" />
<path d="M3.7500 11.0750
L36.1000 11.0750
" />
<path d="M36.1000 9.5750
L3.7500 9.5750
" />
<path d="M3.6750 17.4500
L3.6750 17.6000
" />
<path d="M3.7500 17.6750
L36.1000 17.6750
" />
<path d="M36.1750 9.1750
L36.1750 9.5000
" />
<path d="M3.6750 10.8500
L3.6750 11.0000
" />
<path d="M36.1750 16.5500
L36.1750 16.7000
" />
<path d="M36.1750 9.9500
L36.1750 10.1000
" />
<path d="M3.6750 13.8500
L3.6750 14.0000
" />
<path d="M36.1000 17.3750
L3.7500 17.3750
" />
<path d="M30.1750 6.4750
L30.1750 3.4000
" />
<path d="M36.1750 4.9750
L36.1750 3.4000
" />
<path d="M3.7500 13.4750
L36.1000 13.4750
" />
<path d="M36.1000 16.1750
L3.7500 16.1750
" />
<path d="M32.1750 6.3250
L32.1750 8.6500
" />
<path d="M36.1750 20.9000
L36.1750 21.2250
" />
<path d="M3.6750 13.2500
L3.6750 13.4000
" />
<path d="M37.6750 16.4750
L37.6750 20.8000
" />
<path d="M3.6750 20.4500
L3.6750 20.6000
" />
<path d="M36.1750 17.7500
L36.1750 17.9000
" />
<path d="M34.1750 8.6500
L32.1750 8.6500
" />
<path d="M30.1750 6.8250
L30.1750 8.6500
" />
<path d="M3.6750 15.0500
L3.6750 15.2000
" />
<path d="M24.1750 7.9750
L24.1750 3.4000
" />
<path d="M3.7500 20.6750
L36.1000 20.6750
" />
<path d="M36.1000 11.3750
L3.7500 11.3750
" />
<path d="M36.1750 11.1500
L36.1750 11.3000
" />
<path d="M36.1000 17.9750
L3.7500 17.9750
" />
<path d="M37.6750 9.5000
L37.6750 13.8250
" />
<path d="M3.6750 18.0500
L3.6750 18.2000
" />
<path d="M36.1000 10.7750
L3.7500 10.7750
" />
<path d="M3.6750 16.2500
L3.6750 16.4000
" />
<path d="M3.7500 16.4750
L36.1000 16.4750
" />
<path d="M36.1750 15.9500
L36.1750 16.1000
" />
<path d="M3.6750 9.6500
L3.6750 9.8000
" />
<path d="M36.1750 20.1500
L36.1750 20.3000
" />
<path d="M3.6750 15.6500
L3.6750 15.8000
" />
<path d="M3.7500 10.4750
L36.1000 10.4750
" />
<path d="M36.1000 15.5750
L3.7500 15.5750
" />
<path d="M36.1000 14.3750
L3.7500 14.3750
" />
<path d="M3.6750 19.2500
L3.6750 19.4000
" />
<path d="M24.1750 8.3250
L24.1750 8.6500
" />
<path d="M36.1000 13.7750
L3.7500 13.7750
" />
<path d="M28.1750 3.4000
L28.1750 6.9750
" />
<path d="M36.1000 19.1750
L3.7500 19.1750
" />
<path d="M3.6750 14.4500
L3.6750 14.6000
" />
<path d="M3.7500 15.2750
L36.1000 15.2750
" />
<path d="M36.1000 10.1750
L3.7500 10.1750
" />
<path d="M3.7500 15.8750
L36.1000 15.8750
" />
<path d="M26.1750 7.4750
L26.1750 3.4000
" />
<path d="M36.1000 16.7750
L3.7500 16.7750
" />
<path d="M3.6750 10.2500
L3.6750 10.4000
" />
<path d="M3.6750 12.6500
L3.6750 12.8000
" />
<path d="M30.1750 8.6500
L28.1750 8.6500
" />
<path d="M3.7500 14.6750
L36.1000 14.6750
" />
<path d="M3.7500 14.9750 A0.0750 0.0750 0.0 0 0 3.6750 15.0500" />
<path d="M3.7500 19.7750 A0.0750 0.0750 0.0 0 0 3.6750 19.8500" />
<path d="M3.6750 17.6000 A0.0750 0.0750 0.0 0 0 3.7500 17.6750" />
<path d="M36.1000 15.5750 A0.0750 0.0750 0.0 0 0 36.1750 15.5000" />
<path d="M36.1750 16.5500 A0.0750 0.0750 0.0 0 0 36.1000 16.4750" />
<path d="M3.7500 13.1750 A0.0750 0.0750 0.0 0 0 3.6750 13.2500" />
<path d="M3.7500 13.7750 A0.0750 0.0750 0.0 0 0 3.6750 13.8500" />
<path d="M3.7500 11.9750 A0.0750 0.0750 0.0 0 0 3.6750 12.0500" />
<path d="M3.6750 17.0000 A0.0750 0.0750 0.0 0 0 3.7500 17.0750" />
<path d="M36.1000 19.7750 A0.0750 0.0750 0.0 0 0 36.1750 19.7000" />
<path d="M36.1750 14.1500 A0.0750 0.0750 0.0 0 0 36.1000 14.0750" />
<path d="M36.1750 10.5500 A0.0750 0.0750 0.0 0 0 36.1000 10.4750" />
<path d="M3.6750 12.8000 A0.0750 0.0750 0.0 0 0 3.7500 12.8750" />
<path d="M3.7500 18.5750 A0.0750 0.0750 0.0 0 0 3.6750 18.6500" />
<path d="M36.1000 13.7750 A0.0750 0.0750 0.0 0 0 36.1750 13.7000" />
<path d="M36.1000 20.3750 A0.0750 0.0750 0.0 0 0 36.1750 20.3000" />
<path d="M36.1750 17.7500 A0.0750 0.0750 0.0 0 0 36.1000 17.6750" />
<path d="M3.6750 14.0000 A0.0750 0.0750 0.0 0 0 3.7500 14.0750" />
<path d="M36.1750 11.1500 A0.0750 0.0750 0.0 0 0 36.1000 11.0750" />
<path d="M36.1000 18.5750 A0.0750 0.0750 0.0 0 0 36.1750 18.5000" />
<path d="M36.1750 12.3500 A0.0750 0.0750 0.0 0 0 36.1000 12.2750" />
<path d="M3.7500 17.9750 A0.0750 0.0750 0.0 0 0 3.6750 18.0500" />
<path d="M3.6750 14.6000 A0.0750 0.0750 0.0 0 0 3.7500 14.6750" />
<path d="M36.1750 18.9500 A0.0750 0.0750 0.0 0 0 36.1000 18.8750" />
<path d="M3.6750 11.0000 A0.0750 0.0750 0.0 0 0 3.7500 11.0750" />
<path d="M36.1750 20.1500 A0.0750 0.0750 0.0 0 0 36.1000 20.0750" />
<path d="M3.6750 19.4000 A0.0750 0.0750 0.0 0 0 3.7500 19.4750" />
<path d="M3.6750 13.4000 A0.0750 0.0750 0.0 0 0 3.7500 13.4750" />
<path d="M36.1750 18.3500 A0.0750 0.0750 0.0 0 0 36.1000 18.2750" />
<path d="M36.1000 16.1750 A0.0750 0.0750 0.0 0 0 36.1750 16.1000" />
<path d="M3.6750 15.8000 A0.0750 0.0750 0.0 0 0 3.7500 15.8750" />
<path d="M36.1750 9.9500 A0.0750 0.0750 0.0 0 0 36.1000 9.8750" />
<path d="M36.1750 15.9500 A0.0750 0.0750 0.0 0 0 36.1000 15.8750" />
<path d="M36.1000 16.7750 A0.0750 0.0750 0.0 0 0 36.1750 16.7000" />
<path d="M36.1000 9.5750 A0.0750 0.0750 0.0 0 0 36.1750 9.5000" />
<path d="M3.7500 12.5750 A0.0750 0.0750 0.0 0 0 3.6750 12.6500" />
<path d="M3.6750 20.0000 A0.0750 0.0750 0.0 0 0 3.7500 20.0750" />
<path d="M36.1000 19.1750 A0.0750 0.0750 0.0 0 0 36.1750 19.1000" />
<path d="M36.1750 17.1500 A0.0750 0.0750 0.0 0 0 36.1000 17.0750" />
<path d="M36.1000 13.1750 A0.0750 0.0750 0.0 0 0 36.1750 13.1000" />
<path d="M3.6750 15.2000 A0.0750 0.0750 0.0 0 0 3.7500 15.2750" />
<path d="M3.6750 10.4000 A0.0750 0.0750 0.0 0 0 3.7500 10.4750" />
<path d="M3.6750 18.8000 A0.0750 0.0750 0.0 0 0 3.7500 18.8750" />
<path d="M3.7500 16.7750 A0.0750 0.0750 0.0 0 0 3.6750 16.8500" />
<path d="M3.6750 9.8000 A0.0750 0.0750 0.0 0 0 3.7500 9.8750" />
<path d="M3.6750 20.6000 A0.0750 0.0750 0.0 0 0 3.7500 20.6750" />
<path d="M36.1000 10.7750 A0.0750 0.0750 0.0 0 0 36.1750 10.7000" />
<path d="M36.1000 11.3750 A0.0750 0.0750 0.0 0 0 36.1750 11.3000" />
<path d="M3.7500 17.3750 A0.0750 0.0750 0.0 0 0 3.6750 17.4500" />
<path d="M3.7500 10.7750 A0.0750 0.0750 0.0 0 0 3.6750 10.8500" />
<path d="M3.6750 11.6000 A0.0750 0.0750 0.0 0 0 3.7500 11.6750" />
<path d="M3.7500 20.3750 A0.0750 0.0750 0.0 0 0 3.6750 20.4500" />
<path d="M36.1000 10.1750 A0.0750 0.0750 0.0 0 0 36.1750 10.1000" />
<path d="M36.1750 15.3500 A0.0750 0.0750 0.0 0 0 36.1000 15.2750" />
<path d="M3.7500 14.3750 A0.0750 0.0750 0.0 0 0 3.6750 14.4500" />
<path d="M36.1750 19.5500 A0.0750 0.0750 0.0 0 0 36.1000 19.4750" />
<path d="M36.1750 13.5500 A0.0750 0.0750 0.0 0 0 36.1000 13.4750" />
<path d="M36.1000 14.9750 A0.0750 0.0750 0.0 0 0 36.1750 14.9000" />
<path d="M3.7500 16.1750 A0.0750 0.0750 0.0 0 0 3.6750 16.2500" />
<path d="M3.6750 16.4000 A0.0750 0.0750 0.0 0 0 3.7500 16.4750" />
<path d="M36.1750 12.9500 A0.0750 0.0750 0.0 0 0 36.1000 12.8750" />
<path d="M3.6750 12.2000 A0.0750 0.0750 0.0 0 0 3.7500 12.2750" />
<path d="M36.1000 17.9750 A0.0750 0.0750 0.0 0 0 36.1750 17.9000" />
<path d="M36.1750 11.7500 A0.0750 0.0750 0.0 0 0 36.1000 11.6750" />
<path d="M3.7500 9.5750 A0.0750 0.0750 0.0 0 0 3.6750 9.6500" />
<path d="M3.7500 11.3750 A0.0750 0.0750 0.0 0 0 3.6750 11.4500" />
<path d="M36.1000 12.5750 A0.0750 0.0750 0.0 0 0 36.1750 12.5000" />
<path d="M3.7500 10.1750 A0.0750 0.0750 0.0 0 0 3.6750 10.2500" />
<path d="M3.7500 15.5750 A0.0750 0.0750 0.0 0 0 3.6750 15.6500" />
<path d="M3.6750 18.2000 A0.0750 0.0750 0.0 0 0 3.7500 18.2750" />
<path d="M3.7500 19.1750 A0.0750 0.0750 0.0 0 0 3.6750 19.2500" />
<path d="M36.1750 20.7500 A0.0750 0.0750 0.0 0 0 36.1000 20.6750" />
<path d="M36.1750 14.7500 A0.0750 0.0750 0.0 0 0 36.1000 14.6750" />
<path d="M36.1000 14.3750 A0.0750 0.0750 0.0 0 0 36.1750 14.3000" />
<path d="M36.1000 17.3750 A0.0750 0.0750 0.0 0 0 36.1750 17.3000" />
<path d="M36.1000 11.9750 A0.0750 0.0750 0.0 0 0 36.1750 11.9000" />
</g> 
</svg>
