  0
SECTION
  2
HEADER
  9
$ANGBASE
  50
0.0
  9
$ANGDIR
  70
1
  9
$MEASUREMENT
  70
1
  0
ENDSEC
  0
SECTION
  2
TABLES
  0
TABLE
  2
LTYPE
  70
4
  0
LTYPE
  5
40F
  2
CONTINUOUS
  70
0
  3
Solid line
  72
65
  73
0
  40
0.0
  0
LTYPE
  5
410
  2
DASHDOT
 70
0
  3
Dash Dot ____ _ ____ _
 72
65
 73
4
 40
2.0
 49
1.25
 49
-0.25
 49
0.25
 49
-0.25
  0
LTYPE
  5
411
  2
DASHED
 70
0
  3
Dashed __ __ __ __ __
 72
65
 73
2
 40
0.75
 49
0.5
 49
-0.25
  0
LTYPE
  5
43B
  2
DOTTED
 70
0
  3
Dotted .  .  .  .
 72
65
 73
2
 40
0.2
 49
0.0
 49
-0.2
  0
ENDTAB
  0
TABLE
  2
STYLE
  70
4
  0
STYLE
  2
KICAD
  70
0
  40
0
  41
1
  42
1
  50
0
  71
0
  3
isocp.shx
  0
STYLE
  2
KICADB
  70
0
  40
0
  41
1
  42
1
  50
0
  71
0
  3
isocp.shx
  0
STYLE
  2
KICADI
  70
0
  40
0
  41
1
  42
1
  50
15
  71
0
  3
isocp.shx
  0
STYLE
  2
KICADBI
  70
0
  40
0
  41
1
  42
1
  50
15
  71
0
  3
isocp.shx
  0
ENDTAB
  0
TABLE
  2
LAYER
  70
1
  0
LAYER
  2
BLACK
  70
0
  62
7
  6
CONTINUOUS
  0
ENDTAB
  0
ENDSEC
  0
SECTION
  2
ENTITIES
  0
TEXT
  7
KICAD
  8
BLACK
  10
21.4749999999999979
  11
21.4749999999999979
  20
-3.3499999999999996
  21
-3.3499999999999996
  40
1.5
  41
1.
  50
270.00000000
  51
0.00000000
  71
0
  72
1
  73
2
  1
*
0
LINE
8
BLACK
6
CONTINUOUS
10
37.3999999999999986
20
-13.8999999999999986
11
37.3999999999999986
21
-16.3999999999999986
0
LINE
8
BLACK
6
CONTINUOUS
10
37.3999999999999986
20
-16.3999999999999986
11
37.9499999999999957
21
-16.3999999999999986
0
LINE
8
BLACK
6
CONTINUOUS
10
37.9499999999999957
20
-16.3999999999999986
11
37.9499999999999957
21
-13.8999999999999986
0
LINE
8
BLACK
6
CONTINUOUS
10
37.9499999999999957
20
-13.8999999999999986
11
37.3999999999999986
21
-13.8999999999999986
0
LINE
8
BLACK
6
CONTINUOUS
10
28.0999999999999979
20
-7.0499999999999998
11
28.0999999999999979
21
-7.25
0
LINE
8
BLACK
6
CONTINUOUS
10
28.0999999999999979
20
-7.25
11
28.25
21
-7.25
0
LINE
8
BLACK
6
CONTINUOUS
10
28.25
20
-7.25
11
28.25
21
-7.0499999999999998
0
LINE
8
BLACK
6
CONTINUOUS
10
28.25
20
-7.0499999999999998
11
28.0999999999999979
21
-7.0499999999999998
0
LINE
8
BLACK
6
CONTINUOUS
10
36.1000000000000014
20
-21.3000000000000007
11
36.1000000000000014
21
-21.5
0
LINE
8
BLACK
6
CONTINUOUS
10
36.1000000000000014
20
-21.5
11
36.25
21
-21.5
0
LINE
8
BLACK
6
CONTINUOUS
10
36.25
20
-21.5
11
36.25
21
-21.3000000000000007
0
LINE
8
BLACK
6
CONTINUOUS
10
36.25
20
-21.3000000000000007
11
36.1000000000000014
21
-21.3000000000000007
0
LINE
8
BLACK
6
CONTINUOUS
10
24.0999999999999979
20
-8.0499999999999989
11
24.0999999999999979
21
-8.25
0
LINE
8
BLACK
6
CONTINUOUS
10
24.0999999999999979
20
-8.25
11
24.25
21
-8.25
0
LINE
8
BLACK
6
CONTINUOUS
10
24.25
20
-8.25
11
24.25
21
-8.0499999999999989
0
LINE
8
BLACK
6
CONTINUOUS
10
24.25
20
-8.0499999999999989
11
24.0999999999999979
21
-8.0499999999999989
0
LINE
8
BLACK
6
CONTINUOUS
10
34.1000000000000014
20
-5.5499999999999998
11
34.1000000000000014
21
-5.75
0
LINE
8
BLACK
6
CONTINUOUS
10
34.1000000000000014
20
-5.75
11
34.25
21
-5.75
0
LINE
8
BLACK
6
CONTINUOUS
10
34.25
20
-5.75
11
34.25
21
-5.5499999999999998
0
LINE
8
BLACK
6
CONTINUOUS
10
34.25
20
-5.5499999999999998
11
34.1000000000000014
21
-5.5499999999999998
0
LINE
8
BLACK
6
CONTINUOUS
10
36.1000000000000014
20
-5.0499999999999998
11
36.1000000000000014
21
-5.25
0
LINE
8
BLACK
6
CONTINUOUS
10
36.1000000000000014
20
-5.25
11
36.25
21
-5.25
0
LINE
8
BLACK
6
CONTINUOUS
10
36.25
20
-5.25
11
36.25
21
-5.0499999999999998
0
LINE
8
BLACK
6
CONTINUOUS
10
36.25
20
-5.0499999999999998
11
36.1000000000000014
21
-5.0499999999999998
0
LINE
8
BLACK
6
CONTINUOUS
10
36.1000000000000014
20
-8.9000000000000004
11
36.1000000000000014
21
-9.0999999999999996
0
LINE
8
BLACK
6
CONTINUOUS
10
36.1000000000000014
20
-9.0999999999999996
11
36.25
21
-9.0999999999999996
0
LINE
8
BLACK
6
CONTINUOUS
10
36.25
20
-9.0999999999999996
11
36.25
21
-8.9000000000000004
0
LINE
8
BLACK
6
CONTINUOUS
10
36.25
20
-8.9000000000000004
11
36.1000000000000014
21
-8.9000000000000004
0
LINE
8
BLACK
6
CONTINUOUS
10
32.1000000000000014
20
-6.0499999999999998
11
32.1000000000000014
21
-6.25
0
LINE
8
BLACK
6
CONTINUOUS
10
32.1000000000000014
20
-6.25
11
32.25
21
-6.25
0
LINE
8
BLACK
6
CONTINUOUS
10
32.25
20
-6.25
11
32.25
21
-6.0499999999999998
0
LINE
8
BLACK
6
CONTINUOUS
10
32.25
20
-6.0499999999999998
11
32.1000000000000014
21
-6.0499999999999998
0
LINE
8
BLACK
6
CONTINUOUS
10
26.0999999999999979
20
-7.5499999999999998
11
26.0999999999999979
21
-7.75
0
LINE
8
BLACK
6
CONTINUOUS
10
26.0999999999999979
20
-7.75
11
26.25
21
-7.75
0
LINE
8
BLACK
6
CONTINUOUS
10
26.25
20
-7.75
11
26.25
21
-7.5499999999999998
0
LINE
8
BLACK
6
CONTINUOUS
10
26.25
20
-7.5499999999999998
11
26.0999999999999979
21
-7.5499999999999998
0
LINE
8
BLACK
6
CONTINUOUS
10
30.0999999999999979
20
-6.5499999999999998
11
30.0999999999999979
21
-6.75
0
LINE
8
BLACK
6
CONTINUOUS
10
30.0999999999999979
20
-6.75
11
30.25
21
-6.75
0
LINE
8
BLACK
6
CONTINUOUS
10
30.25
20
-6.75
11
30.25
21
-6.5499999999999998
0
LINE
8
BLACK
6
CONTINUOUS
10
30.25
20
-6.5499999999999998
11
30.0999999999999979
21
-6.5499999999999998
  0
ENDSEC
  0
EOF
